%TF.GenerationSoftware,KiCad,Pcbnew,(6.0.2)*%
%TF.CreationDate,2022-03-01T10:48:04-06:00*%
%TF.ProjectId,PhonoJFET,50686f6e-6f4a-4464-9554-2e6b69636164,rev?*%
%TF.SameCoordinates,Original*%
%TF.FileFunction,Soldermask,Top*%
%TF.FilePolarity,Negative*%
%FSLAX46Y46*%
G04 Gerber Fmt 4.6, Leading zero omitted, Abs format (unit mm)*
G04 Created by KiCad (PCBNEW (6.0.2)) date 2022-03-01 10:48:04*
%MOMM*%
%LPD*%
G01*
G04 APERTURE LIST*
G04 Aperture macros list*
%AMRoundRect*
0 Rectangle with rounded corners*
0 $1 Rounding radius*
0 $2 $3 $4 $5 $6 $7 $8 $9 X,Y pos of 4 corners*
0 Add a 4 corners polygon primitive as box body*
4,1,4,$2,$3,$4,$5,$6,$7,$8,$9,$2,$3,0*
0 Add four circle primitives for the rounded corners*
1,1,$1+$1,$2,$3*
1,1,$1+$1,$4,$5*
1,1,$1+$1,$6,$7*
1,1,$1+$1,$8,$9*
0 Add four rect primitives between the rounded corners*
20,1,$1+$1,$2,$3,$4,$5,0*
20,1,$1+$1,$4,$5,$6,$7,0*
20,1,$1+$1,$6,$7,$8,$9,0*
20,1,$1+$1,$8,$9,$2,$3,0*%
G04 Aperture macros list end*
%ADD10R,3.000000X3.000000*%
%ADD11C,3.000000*%
%ADD12O,1.600000X1.600000*%
%ADD13C,1.600000*%
%ADD14R,1.600000X1.600000*%
%ADD15C,3.500000*%
%ADD16R,1.800000X1.800000*%
%ADD17C,1.800000*%
%ADD18C,2.500000*%
%ADD19O,2.000000X1.000000*%
%ADD20O,1.000000X2.000000*%
%ADD21O,1.500000X2.000000*%
%ADD22O,2.000000X1.500000*%
%ADD23R,3.500000X3.500000*%
%ADD24RoundRect,0.750000X-0.750000X-1.000000X0.750000X-1.000000X0.750000X1.000000X-0.750000X1.000000X0*%
%ADD25RoundRect,0.875000X-0.875000X-0.875000X0.875000X-0.875000X0.875000X0.875000X-0.875000X0.875000X0*%
%ADD26R,2.200000X2.200000*%
%ADD27O,2.200000X2.200000*%
G04 APERTURE END LIST*
D10*
%TO.C,J4*%
X137287000Y-138430000D03*
D11*
X137287000Y-143510000D03*
%TD*%
D12*
%TO.C,R10*%
X135382000Y-154178000D03*
D13*
X135382000Y-161798000D03*
%TD*%
%TO.C,R9*%
X93726000Y-157226000D03*
D12*
X86106000Y-157226000D03*
%TD*%
D14*
%TO.C,C1*%
X99695000Y-144119600D03*
D13*
X97195000Y-144119600D03*
%TD*%
D15*
%TO.C,J9*%
X79000000Y-161000000D03*
%TD*%
D16*
%TO.C,D2*%
X97683400Y-134010400D03*
D17*
X100223400Y-134010400D03*
%TD*%
D14*
%TO.C,C3*%
X101092000Y-120864000D03*
D13*
X101092000Y-118364000D03*
%TD*%
D18*
%TO.C,RV3*%
X110316000Y-118776500D03*
X115316000Y-118776500D03*
X120316000Y-118776500D03*
X110316000Y-123776500D03*
X115316000Y-123776500D03*
X120316000Y-123776500D03*
%TD*%
D13*
%TO.C,C4*%
X122428000Y-137200000D03*
X122428000Y-142200000D03*
%TD*%
D16*
%TO.C,D3*%
X97688400Y-129438400D03*
D17*
X100228400Y-129438400D03*
%TD*%
D13*
%TO.C,R7*%
X118618000Y-134620000D03*
D12*
X118618000Y-127000000D03*
%TD*%
D13*
%TO.C,R6*%
X130000000Y-126746000D03*
D12*
X130000000Y-134366000D03*
%TD*%
D13*
%TO.C,C7*%
X104775000Y-133945000D03*
X104775000Y-128945000D03*
%TD*%
D14*
%TO.C,C2*%
X101092000Y-114997112D03*
D13*
X101092000Y-112497112D03*
%TD*%
D19*
%TO.C,J2*%
X87160000Y-140055000D03*
X90660000Y-130055000D03*
D20*
X82760000Y-135255000D03*
D21*
X94060000Y-139555000D03*
D22*
X89660000Y-132655000D03*
%TD*%
D16*
%TO.C,D4*%
X97688400Y-124917200D03*
D17*
X100228400Y-124917200D03*
%TD*%
D13*
%TO.C,R5*%
X129050000Y-136650000D03*
D12*
X129050000Y-144270000D03*
%TD*%
D20*
%TO.C,J5*%
X132040000Y-153810000D03*
X122040000Y-150310000D03*
D19*
X127240000Y-158210000D03*
D22*
X131540000Y-146910000D03*
D21*
X124640000Y-151310000D03*
%TD*%
D13*
%TO.C,R3*%
X106222800Y-112268000D03*
D12*
X106222800Y-119888000D03*
%TD*%
D14*
%TO.C,U1*%
X107325000Y-144770000D03*
D12*
X109865000Y-144770000D03*
X112405000Y-144770000D03*
X114945000Y-144770000D03*
X114945000Y-137150000D03*
X112405000Y-137150000D03*
X109865000Y-137150000D03*
X107325000Y-137150000D03*
%TD*%
D18*
%TO.C,RV1*%
X108505000Y-153892500D03*
X103505000Y-153892500D03*
X98505000Y-153892500D03*
X108505000Y-148892500D03*
X103505000Y-148892500D03*
X98505000Y-148892500D03*
%TD*%
D13*
%TO.C,R1*%
X103505000Y-137160000D03*
D12*
X103505000Y-144780000D03*
%TD*%
D13*
%TO.C,C8*%
X115824000Y-129032000D03*
X110824000Y-129032000D03*
%TD*%
%TO.C,C9*%
X125730000Y-142200000D03*
X125730000Y-137200000D03*
%TD*%
D18*
%TO.C,RV2*%
X127588000Y-118776500D03*
X132588000Y-118776500D03*
X137588000Y-118776500D03*
X127588000Y-123776500D03*
X132588000Y-123776500D03*
X137588000Y-123776500D03*
%TD*%
D13*
%TO.C,R8*%
X107950000Y-133985000D03*
D12*
X107950000Y-126365000D03*
%TD*%
D13*
%TO.C,C10*%
X110911000Y-133096000D03*
X115911000Y-133096000D03*
%TD*%
D14*
%TO.C,C11*%
X138176000Y-148336000D03*
D13*
X138176000Y-150836000D03*
%TD*%
D15*
%TO.C,J8*%
X79000000Y-112000000D03*
%TD*%
%TO.C,J7*%
X143000000Y-161000000D03*
%TD*%
D23*
%TO.C,J3*%
X91090000Y-122232500D03*
D24*
X85090000Y-122232500D03*
D25*
X88090000Y-126932500D03*
%TD*%
D13*
%TO.C,R4*%
X137160000Y-134366000D03*
D12*
X137160000Y-126746000D03*
%TD*%
D26*
%TO.C,D1*%
X95250000Y-119380000D03*
D27*
X95250000Y-111760000D03*
%TD*%
D13*
%TO.C,C5*%
X133350000Y-131746000D03*
X133350000Y-126746000D03*
%TD*%
%TO.C,R2*%
X118745000Y-137160000D03*
D12*
X118745000Y-144780000D03*
%TD*%
D10*
%TO.C,J1*%
X91440000Y-146685000D03*
D11*
X91440000Y-151765000D03*
%TD*%
D15*
%TO.C,J6*%
X143000000Y-112000000D03*
%TD*%
D13*
%TO.C,C6*%
X126492000Y-127040000D03*
X126492000Y-132040000D03*
%TD*%
M02*
