%TF.GenerationSoftware,KiCad,Pcbnew,(6.0.2)*%
%TF.CreationDate,2022-03-01T10:48:04-06:00*%
%TF.ProjectId,PhonoJFET,50686f6e-6f4a-4464-9554-2e6b69636164,rev?*%
%TF.SameCoordinates,Original*%
%TF.FileFunction,Legend,Top*%
%TF.FilePolarity,Positive*%
%FSLAX46Y46*%
G04 Gerber Fmt 4.6, Leading zero omitted, Abs format (unit mm)*
G04 Created by KiCad (PCBNEW (6.0.2)) date 2022-03-01 10:48:04*
%MOMM*%
%LPD*%
G01*
G04 APERTURE LIST*
%ADD10C,0.150000*%
%ADD11C,0.120000*%
%ADD12C,0.100000*%
G04 APERTURE END LIST*
D10*
X82960000Y-115517380D02*
X82388571Y-115517380D01*
X82674285Y-115517380D02*
X82674285Y-114517380D01*
X82579047Y-114660238D01*
X82483809Y-114755476D01*
X82388571Y-114803095D01*
X83340952Y-114612619D02*
X83388571Y-114565000D01*
X83483809Y-114517380D01*
X83721904Y-114517380D01*
X83817142Y-114565000D01*
X83864761Y-114612619D01*
X83912380Y-114707857D01*
X83912380Y-114803095D01*
X83864761Y-114945952D01*
X83293333Y-115517380D01*
X83912380Y-115517380D01*
X84960000Y-114517380D02*
X85293333Y-115517380D01*
X85626666Y-114517380D01*
X85960000Y-115517380D02*
X85960000Y-114517380D01*
X86198095Y-114517380D01*
X86340952Y-114565000D01*
X86436190Y-114660238D01*
X86483809Y-114755476D01*
X86531428Y-114945952D01*
X86531428Y-115088809D01*
X86483809Y-115279285D01*
X86436190Y-115374523D01*
X86340952Y-115469761D01*
X86198095Y-115517380D01*
X85960000Y-115517380D01*
X87531428Y-115422142D02*
X87483809Y-115469761D01*
X87340952Y-115517380D01*
X87245714Y-115517380D01*
X87102857Y-115469761D01*
X87007619Y-115374523D01*
X86960000Y-115279285D01*
X86912380Y-115088809D01*
X86912380Y-114945952D01*
X86960000Y-114755476D01*
X87007619Y-114660238D01*
X87102857Y-114565000D01*
X87245714Y-114517380D01*
X87340952Y-114517380D01*
X87483809Y-114565000D01*
X87531428Y-114612619D01*
X81960000Y-117032142D02*
X81912380Y-117079761D01*
X81769523Y-117127380D01*
X81674285Y-117127380D01*
X81531428Y-117079761D01*
X81436190Y-116984523D01*
X81388571Y-116889285D01*
X81340952Y-116698809D01*
X81340952Y-116555952D01*
X81388571Y-116365476D01*
X81436190Y-116270238D01*
X81531428Y-116175000D01*
X81674285Y-116127380D01*
X81769523Y-116127380D01*
X81912380Y-116175000D01*
X81960000Y-116222619D01*
X82388571Y-116603571D02*
X82721904Y-116603571D01*
X82864761Y-117127380D02*
X82388571Y-117127380D01*
X82388571Y-116127380D01*
X82864761Y-116127380D01*
X83293333Y-117127380D02*
X83293333Y-116127380D01*
X83864761Y-117127380D01*
X83864761Y-116127380D01*
X84198095Y-116127380D02*
X84769523Y-116127380D01*
X84483809Y-117127380D02*
X84483809Y-116127380D01*
X85102857Y-116603571D02*
X85436190Y-116603571D01*
X85579047Y-117127380D02*
X85102857Y-117127380D01*
X85102857Y-116127380D01*
X85579047Y-116127380D01*
X86579047Y-117127380D02*
X86245714Y-116651190D01*
X86007619Y-117127380D02*
X86007619Y-116127380D01*
X86388571Y-116127380D01*
X86483809Y-116175000D01*
X86531428Y-116222619D01*
X86579047Y-116317857D01*
X86579047Y-116460714D01*
X86531428Y-116555952D01*
X86483809Y-116603571D01*
X86388571Y-116651190D01*
X86007619Y-116651190D01*
X87769523Y-116746428D02*
X88531428Y-116746428D01*
X88150476Y-117127380D02*
X88150476Y-116365476D01*
X109880952Y-140452380D02*
X110452380Y-140452380D01*
X110166666Y-141452380D02*
X110166666Y-140452380D01*
X111261904Y-141452380D02*
X110785714Y-141452380D01*
X110785714Y-140452380D01*
X111785714Y-140452380D02*
X111880952Y-140452380D01*
X111976190Y-140500000D01*
X112023809Y-140547619D01*
X112071428Y-140642857D01*
X112119047Y-140833333D01*
X112119047Y-141071428D01*
X112071428Y-141261904D01*
X112023809Y-141357142D01*
X111976190Y-141404761D01*
X111880952Y-141452380D01*
X111785714Y-141452380D01*
X111690476Y-141404761D01*
X111642857Y-141357142D01*
X111595238Y-141261904D01*
X111547619Y-141071428D01*
X111547619Y-140833333D01*
X111595238Y-140642857D01*
X111642857Y-140547619D01*
X111690476Y-140500000D01*
X111785714Y-140452380D01*
X112452380Y-140452380D02*
X113119047Y-140452380D01*
X112690476Y-141452380D01*
X113452380Y-140547619D02*
X113500000Y-140500000D01*
X113595238Y-140452380D01*
X113833333Y-140452380D01*
X113928571Y-140500000D01*
X113976190Y-140547619D01*
X114023809Y-140642857D01*
X114023809Y-140738095D01*
X113976190Y-140880952D01*
X113404761Y-141452380D01*
X114023809Y-141452380D01*
X141852380Y-140454761D02*
X141852380Y-140264285D01*
X141900000Y-140169047D01*
X141995238Y-140073809D01*
X142185714Y-140026190D01*
X142519047Y-140026190D01*
X142709523Y-140073809D01*
X142804761Y-140169047D01*
X142852380Y-140264285D01*
X142852380Y-140454761D01*
X142804761Y-140550000D01*
X142709523Y-140645238D01*
X142519047Y-140692857D01*
X142185714Y-140692857D01*
X141995238Y-140645238D01*
X141900000Y-140550000D01*
X141852380Y-140454761D01*
X141852380Y-139597619D02*
X142661904Y-139597619D01*
X142757142Y-139550000D01*
X142804761Y-139502380D01*
X142852380Y-139407142D01*
X142852380Y-139216666D01*
X142804761Y-139121428D01*
X142757142Y-139073809D01*
X142661904Y-139026190D01*
X141852380Y-139026190D01*
X141852380Y-138692857D02*
X141852380Y-138121428D01*
X142852380Y-138407142D02*
X141852380Y-138407142D01*
X142852380Y-137788095D02*
X141852380Y-137788095D01*
X141852380Y-137407142D01*
X141900000Y-137311904D01*
X141947619Y-137264285D01*
X142042857Y-137216666D01*
X142185714Y-137216666D01*
X142280952Y-137264285D01*
X142328571Y-137311904D01*
X142376190Y-137407142D01*
X142376190Y-137788095D01*
X141852380Y-136788095D02*
X142661904Y-136788095D01*
X142757142Y-136740476D01*
X142804761Y-136692857D01*
X142852380Y-136597619D01*
X142852380Y-136407142D01*
X142804761Y-136311904D01*
X142757142Y-136264285D01*
X142661904Y-136216666D01*
X141852380Y-136216666D01*
X141852380Y-135883333D02*
X141852380Y-135311904D01*
X142852380Y-135597619D02*
X141852380Y-135597619D01*
X100190476Y-161452380D02*
X100523809Y-162452380D01*
X100857142Y-161452380D01*
X101380952Y-161452380D02*
X101571428Y-161452380D01*
X101666666Y-161500000D01*
X101761904Y-161595238D01*
X101809523Y-161785714D01*
X101809523Y-162119047D01*
X101761904Y-162309523D01*
X101666666Y-162404761D01*
X101571428Y-162452380D01*
X101380952Y-162452380D01*
X101285714Y-162404761D01*
X101190476Y-162309523D01*
X101142857Y-162119047D01*
X101142857Y-161785714D01*
X101190476Y-161595238D01*
X101285714Y-161500000D01*
X101380952Y-161452380D01*
X102714285Y-162452380D02*
X102238095Y-162452380D01*
X102238095Y-161452380D01*
X103047619Y-161452380D02*
X103047619Y-162261904D01*
X103095238Y-162357142D01*
X103142857Y-162404761D01*
X103238095Y-162452380D01*
X103428571Y-162452380D01*
X103523809Y-162404761D01*
X103571428Y-162357142D01*
X103619047Y-162261904D01*
X103619047Y-161452380D01*
X104095238Y-162452380D02*
X104095238Y-161452380D01*
X104428571Y-162166666D01*
X104761904Y-161452380D01*
X104761904Y-162452380D01*
X105238095Y-161928571D02*
X105571428Y-161928571D01*
X105714285Y-162452380D02*
X105238095Y-162452380D01*
X105238095Y-161452380D01*
X105714285Y-161452380D01*
X116595238Y-161847980D02*
X116785714Y-161847980D01*
X116880952Y-161895600D01*
X116976190Y-161990838D01*
X117023809Y-162181314D01*
X117023809Y-162514647D01*
X116976190Y-162705123D01*
X116880952Y-162800361D01*
X116785714Y-162847980D01*
X116595238Y-162847980D01*
X116500000Y-162800361D01*
X116404761Y-162705123D01*
X116357142Y-162514647D01*
X116357142Y-162181314D01*
X116404761Y-161990838D01*
X116500000Y-161895600D01*
X116595238Y-161847980D01*
X117452380Y-161847980D02*
X117452380Y-162657504D01*
X117500000Y-162752742D01*
X117547619Y-162800361D01*
X117642857Y-162847980D01*
X117833333Y-162847980D01*
X117928571Y-162800361D01*
X117976190Y-162752742D01*
X118023809Y-162657504D01*
X118023809Y-161847980D01*
X118357142Y-161847980D02*
X118928571Y-161847980D01*
X118642857Y-162847980D02*
X118642857Y-161847980D01*
X119261904Y-162847980D02*
X119261904Y-161847980D01*
X119642857Y-161847980D01*
X119738095Y-161895600D01*
X119785714Y-161943219D01*
X119833333Y-162038457D01*
X119833333Y-162181314D01*
X119785714Y-162276552D01*
X119738095Y-162324171D01*
X119642857Y-162371790D01*
X119261904Y-162371790D01*
X120261904Y-161847980D02*
X120261904Y-162657504D01*
X120309523Y-162752742D01*
X120357142Y-162800361D01*
X120452380Y-162847980D01*
X120642857Y-162847980D01*
X120738095Y-162800361D01*
X120785714Y-162752742D01*
X120833333Y-162657504D01*
X120833333Y-161847980D01*
X121166666Y-161847980D02*
X121738095Y-161847980D01*
X121452380Y-162847980D02*
X121452380Y-161847980D01*
X82226619Y-144511047D02*
X83226619Y-144511047D01*
X83226619Y-144892000D01*
X83179000Y-144987238D01*
X83131380Y-145034857D01*
X83036142Y-145082476D01*
X82893285Y-145082476D01*
X82798047Y-145034857D01*
X82750428Y-144987238D01*
X82702809Y-144892000D01*
X82702809Y-144511047D01*
X82226619Y-145511047D02*
X83226619Y-145511047D01*
X82750428Y-145987238D02*
X82750428Y-146320571D01*
X82226619Y-146463428D02*
X82226619Y-145987238D01*
X83226619Y-145987238D01*
X83226619Y-146463428D01*
X83226619Y-146796761D02*
X83226619Y-147463428D01*
X82226619Y-146796761D01*
X82226619Y-147463428D01*
X83226619Y-148034857D02*
X83226619Y-148225333D01*
X83179000Y-148320571D01*
X83083761Y-148415809D01*
X82893285Y-148463428D01*
X82559952Y-148463428D01*
X82369476Y-148415809D01*
X82274238Y-148320571D01*
X82226619Y-148225333D01*
X82226619Y-148034857D01*
X82274238Y-147939619D01*
X82369476Y-147844380D01*
X82559952Y-147796761D01*
X82893285Y-147796761D01*
X83083761Y-147844380D01*
X83179000Y-147939619D01*
X83226619Y-148034857D01*
X82512333Y-149606285D02*
X82512333Y-150082476D01*
X82226619Y-149511047D02*
X83226619Y-149844380D01*
X82226619Y-150177714D01*
X82226619Y-150511047D02*
X83226619Y-150511047D01*
X82512333Y-150844380D01*
X83226619Y-151177714D01*
X82226619Y-151177714D01*
X82226619Y-151653904D02*
X83226619Y-151653904D01*
X83226619Y-152034857D01*
X83179000Y-152130095D01*
X83131380Y-152177714D01*
X83036142Y-152225333D01*
X82893285Y-152225333D01*
X82798047Y-152177714D01*
X82750428Y-152130095D01*
X82702809Y-152034857D01*
X82702809Y-151653904D01*
X82226619Y-153130095D02*
X82226619Y-152653904D01*
X83226619Y-152653904D01*
X82226619Y-153463428D02*
X83226619Y-153463428D01*
X82750428Y-154272952D02*
X82750428Y-153939619D01*
X82226619Y-153939619D02*
X83226619Y-153939619D01*
X83226619Y-154415809D01*
X82226619Y-154796761D02*
X83226619Y-154796761D01*
X82750428Y-155272952D02*
X82750428Y-155606285D01*
X82226619Y-155749142D02*
X82226619Y-155272952D01*
X83226619Y-155272952D01*
X83226619Y-155749142D01*
X82226619Y-156749142D02*
X82702809Y-156415809D01*
X82226619Y-156177714D02*
X83226619Y-156177714D01*
X83226619Y-156558666D01*
X83179000Y-156653904D01*
X83131380Y-156701523D01*
X83036142Y-156749142D01*
X82893285Y-156749142D01*
X82798047Y-156701523D01*
X82750428Y-156653904D01*
X82702809Y-156558666D01*
X82702809Y-156177714D01*
X83226619Y-157796761D02*
X82226619Y-158130095D01*
X83226619Y-158463428D01*
X82226619Y-159320571D02*
X82226619Y-158749142D01*
X82226619Y-159034857D02*
X83226619Y-159034857D01*
X83083761Y-158939619D01*
X82988523Y-158844380D01*
X82940904Y-158749142D01*
X80902333Y-146249142D02*
X80902333Y-146725333D01*
X80616619Y-146153904D02*
X81616619Y-146487238D01*
X80616619Y-146820571D01*
X80616619Y-147153904D02*
X81616619Y-147153904D01*
X80616619Y-147725333D01*
X81616619Y-147725333D01*
X80616619Y-148201523D02*
X81616619Y-148201523D01*
X81616619Y-148439619D01*
X81569000Y-148582476D01*
X81473761Y-148677714D01*
X81378523Y-148725333D01*
X81188047Y-148772952D01*
X81045190Y-148772952D01*
X80854714Y-148725333D01*
X80759476Y-148677714D01*
X80664238Y-148582476D01*
X80616619Y-148439619D01*
X80616619Y-148201523D01*
X81140428Y-149963428D02*
X81140428Y-150296761D01*
X80616619Y-150439619D02*
X80616619Y-149963428D01*
X81616619Y-149963428D01*
X81616619Y-150439619D01*
X80521380Y-151534857D02*
X80569000Y-151439619D01*
X80664238Y-151344380D01*
X80807095Y-151201523D01*
X80854714Y-151106285D01*
X80854714Y-151011047D01*
X80616619Y-151058666D02*
X80664238Y-150963428D01*
X80759476Y-150868190D01*
X80949952Y-150820571D01*
X81283285Y-150820571D01*
X81473761Y-150868190D01*
X81569000Y-150963428D01*
X81616619Y-151058666D01*
X81616619Y-151249142D01*
X81569000Y-151344380D01*
X81473761Y-151439619D01*
X81283285Y-151487238D01*
X80949952Y-151487238D01*
X80759476Y-151439619D01*
X80664238Y-151344380D01*
X80616619Y-151249142D01*
X80616619Y-151058666D01*
X81616619Y-151915809D02*
X80807095Y-151915809D01*
X80711857Y-151963428D01*
X80664238Y-152011047D01*
X80616619Y-152106285D01*
X80616619Y-152296761D01*
X80664238Y-152392000D01*
X80711857Y-152439619D01*
X80807095Y-152487238D01*
X81616619Y-152487238D01*
X80902333Y-152915809D02*
X80902333Y-153392000D01*
X80616619Y-152820571D02*
X81616619Y-153153904D01*
X80616619Y-153487238D01*
X80616619Y-154296761D02*
X80616619Y-153820571D01*
X81616619Y-153820571D01*
X80616619Y-154630095D02*
X81616619Y-154630095D01*
X81616619Y-155011047D02*
X81616619Y-155677714D01*
X80616619Y-155011047D01*
X80616619Y-155677714D01*
X81140428Y-156058666D02*
X81140428Y-156392000D01*
X80616619Y-156534857D02*
X80616619Y-156058666D01*
X81616619Y-156058666D01*
X81616619Y-156534857D01*
X80616619Y-157534857D02*
X81092809Y-157201523D01*
X80616619Y-156963428D02*
X81616619Y-156963428D01*
X81616619Y-157344380D01*
X81569000Y-157439619D01*
X81521380Y-157487238D01*
X81426142Y-157534857D01*
X81283285Y-157534857D01*
X81188047Y-157487238D01*
X81140428Y-157439619D01*
X81092809Y-157344380D01*
X81092809Y-156963428D01*
X79006619Y-146725333D02*
X80006619Y-146725333D01*
X80006619Y-146963428D01*
X79959000Y-147106285D01*
X79863761Y-147201523D01*
X79768523Y-147249142D01*
X79578047Y-147296761D01*
X79435190Y-147296761D01*
X79244714Y-147249142D01*
X79149476Y-147201523D01*
X79054238Y-147106285D01*
X79006619Y-146963428D01*
X79006619Y-146725333D01*
X79292333Y-147677714D02*
X79292333Y-148153904D01*
X79006619Y-147582476D02*
X80006619Y-147915809D01*
X79006619Y-148249142D01*
X79006619Y-148582476D02*
X80006619Y-148582476D01*
X79006619Y-149153904D01*
X80006619Y-149153904D01*
X79006619Y-149630095D02*
X80006619Y-149630095D01*
X79530428Y-150106285D02*
X79530428Y-150439619D01*
X79006619Y-150582476D02*
X79006619Y-150106285D01*
X80006619Y-150106285D01*
X80006619Y-150582476D01*
X79006619Y-151487238D02*
X79006619Y-151011047D01*
X80006619Y-151011047D01*
X79006619Y-152582476D02*
X80006619Y-152582476D01*
X79292333Y-152915809D01*
X80006619Y-153249142D01*
X79006619Y-153249142D01*
X79292333Y-153677714D02*
X79292333Y-154153904D01*
X79006619Y-153582476D02*
X80006619Y-153915809D01*
X79006619Y-154249142D01*
X79006619Y-155153904D02*
X79482809Y-154820571D01*
X79006619Y-154582476D02*
X80006619Y-154582476D01*
X80006619Y-154963428D01*
X79959000Y-155058666D01*
X79911380Y-155106285D01*
X79816142Y-155153904D01*
X79673285Y-155153904D01*
X79578047Y-155106285D01*
X79530428Y-155058666D01*
X79482809Y-154963428D01*
X79482809Y-154582476D01*
X79006619Y-155582476D02*
X80006619Y-155582476D01*
X79006619Y-156153904D02*
X79578047Y-155725333D01*
X80006619Y-156153904D02*
X79435190Y-155582476D01*
X79054238Y-156534857D02*
X79006619Y-156677714D01*
X79006619Y-156915809D01*
X79054238Y-157011047D01*
X79101857Y-157058666D01*
X79197095Y-157106285D01*
X79292333Y-157106285D01*
X79387571Y-157058666D01*
X79435190Y-157011047D01*
X79482809Y-156915809D01*
X79530428Y-156725333D01*
X79578047Y-156630095D01*
X79625666Y-156582476D01*
X79720904Y-156534857D01*
X79816142Y-156534857D01*
X79911380Y-156582476D01*
X79959000Y-156630095D01*
X80006619Y-156725333D01*
X80006619Y-156963428D01*
X79959000Y-157106285D01*
X77491857Y-147058666D02*
X77444238Y-147011047D01*
X77396619Y-146868190D01*
X77396619Y-146772952D01*
X77444238Y-146630095D01*
X77539476Y-146534857D01*
X77634714Y-146487238D01*
X77825190Y-146439619D01*
X77968047Y-146439619D01*
X78158523Y-146487238D01*
X78253761Y-146534857D01*
X78349000Y-146630095D01*
X78396619Y-146772952D01*
X78396619Y-146868190D01*
X78349000Y-147011047D01*
X78301380Y-147058666D01*
X77491857Y-148058666D02*
X77444238Y-148011047D01*
X77396619Y-147868190D01*
X77396619Y-147772952D01*
X77444238Y-147630095D01*
X77539476Y-147534857D01*
X77634714Y-147487238D01*
X77825190Y-147439619D01*
X77968047Y-147439619D01*
X78158523Y-147487238D01*
X78253761Y-147534857D01*
X78349000Y-147630095D01*
X78396619Y-147772952D01*
X78396619Y-147868190D01*
X78349000Y-148011047D01*
X78301380Y-148058666D01*
X77777571Y-148487238D02*
X77777571Y-149249142D01*
X77920428Y-150058666D02*
X77872809Y-150201523D01*
X77825190Y-150249142D01*
X77729952Y-150296761D01*
X77587095Y-150296761D01*
X77491857Y-150249142D01*
X77444238Y-150201523D01*
X77396619Y-150106285D01*
X77396619Y-149725333D01*
X78396619Y-149725333D01*
X78396619Y-150058666D01*
X78349000Y-150153904D01*
X78301380Y-150201523D01*
X78206142Y-150249142D01*
X78110904Y-150249142D01*
X78015666Y-150201523D01*
X77968047Y-150153904D01*
X77920428Y-150058666D01*
X77920428Y-149725333D01*
X77872809Y-150915809D02*
X77396619Y-150915809D01*
X78396619Y-150582476D02*
X77872809Y-150915809D01*
X78396619Y-151249142D01*
X77777571Y-151582476D02*
X77777571Y-152344380D01*
X77444238Y-152772952D02*
X77396619Y-152915809D01*
X77396619Y-153153904D01*
X77444238Y-153249142D01*
X77491857Y-153296761D01*
X77587095Y-153344380D01*
X77682333Y-153344380D01*
X77777571Y-153296761D01*
X77825190Y-153249142D01*
X77872809Y-153153904D01*
X77920428Y-152963428D01*
X77968047Y-152868190D01*
X78015666Y-152820571D01*
X78110904Y-152772952D01*
X78206142Y-152772952D01*
X78301380Y-152820571D01*
X78349000Y-152868190D01*
X78396619Y-152963428D01*
X78396619Y-153201523D01*
X78349000Y-153344380D01*
X77682333Y-153725333D02*
X77682333Y-154201523D01*
X77396619Y-153630095D02*
X78396619Y-153963428D01*
X77396619Y-154296761D01*
X78063285Y-155820571D02*
X77396619Y-155820571D01*
X78444238Y-155582476D02*
X77729952Y-155344380D01*
X77729952Y-155963428D01*
X77491857Y-156344380D02*
X77444238Y-156392000D01*
X77396619Y-156344380D01*
X77444238Y-156296761D01*
X77491857Y-156344380D01*
X77396619Y-156344380D01*
X78396619Y-157011047D02*
X78396619Y-157106285D01*
X78349000Y-157201523D01*
X78301380Y-157249142D01*
X78206142Y-157296761D01*
X78015666Y-157344380D01*
X77777571Y-157344380D01*
X77587095Y-157296761D01*
X77491857Y-157249142D01*
X77444238Y-157201523D01*
X77396619Y-157106285D01*
X77396619Y-157011047D01*
X77444238Y-156915809D01*
X77491857Y-156868190D01*
X77587095Y-156820571D01*
X77777571Y-156772952D01*
X78015666Y-156772952D01*
X78206142Y-156820571D01*
X78301380Y-156868190D01*
X78349000Y-156915809D01*
X78396619Y-157011047D01*
X141860000Y-144711904D02*
X141812380Y-144807142D01*
X141812380Y-144950000D01*
X141860000Y-145092857D01*
X141955238Y-145188095D01*
X142050476Y-145235714D01*
X142240952Y-145283333D01*
X142383809Y-145283333D01*
X142574285Y-145235714D01*
X142669523Y-145188095D01*
X142764761Y-145092857D01*
X142812380Y-144950000D01*
X142812380Y-144854761D01*
X142764761Y-144711904D01*
X142717142Y-144664285D01*
X142383809Y-144664285D01*
X142383809Y-144854761D01*
X142812380Y-144235714D02*
X141812380Y-144235714D01*
X142812380Y-143664285D01*
X141812380Y-143664285D01*
X142812380Y-143188095D02*
X141812380Y-143188095D01*
X141812380Y-142950000D01*
X141860000Y-142807142D01*
X141955238Y-142711904D01*
X142050476Y-142664285D01*
X142240952Y-142616666D01*
X142383809Y-142616666D01*
X142574285Y-142664285D01*
X142669523Y-142711904D01*
X142764761Y-142807142D01*
X142812380Y-142950000D01*
X142812380Y-143188095D01*
X84957619Y-144547619D02*
X85957619Y-144547619D01*
X85957619Y-144928571D01*
X85910000Y-145023809D01*
X85862380Y-145071428D01*
X85767142Y-145119047D01*
X85624285Y-145119047D01*
X85529047Y-145071428D01*
X85481428Y-145023809D01*
X85433809Y-144928571D01*
X85433809Y-144547619D01*
X84957619Y-145547619D02*
X85957619Y-145547619D01*
X85481428Y-146023809D02*
X85481428Y-146357142D01*
X84957619Y-146500000D02*
X84957619Y-146023809D01*
X85957619Y-146023809D01*
X85957619Y-146500000D01*
X85957619Y-146833333D02*
X85957619Y-147500000D01*
X84957619Y-146833333D01*
X84957619Y-147500000D01*
X85957619Y-148071428D02*
X85957619Y-148261904D01*
X85910000Y-148357142D01*
X85814761Y-148452380D01*
X85624285Y-148500000D01*
X85290952Y-148500000D01*
X85100476Y-148452380D01*
X85005238Y-148357142D01*
X84957619Y-148261904D01*
X84957619Y-148071428D01*
X85005238Y-147976190D01*
X85100476Y-147880952D01*
X85290952Y-147833333D01*
X85624285Y-147833333D01*
X85814761Y-147880952D01*
X85910000Y-147976190D01*
X85957619Y-148071428D01*
X112904761Y-109952380D02*
X113476190Y-109952380D01*
X113190476Y-110952380D02*
X113190476Y-109952380D01*
X114380952Y-110952380D02*
X114047619Y-110476190D01*
X113809523Y-110952380D02*
X113809523Y-109952380D01*
X114190476Y-109952380D01*
X114285714Y-110000000D01*
X114333333Y-110047619D01*
X114380952Y-110142857D01*
X114380952Y-110285714D01*
X114333333Y-110380952D01*
X114285714Y-110428571D01*
X114190476Y-110476190D01*
X113809523Y-110476190D01*
X114809523Y-110428571D02*
X115142857Y-110428571D01*
X115285714Y-110952380D02*
X114809523Y-110952380D01*
X114809523Y-109952380D01*
X115285714Y-109952380D01*
X116047619Y-110428571D02*
X116190476Y-110476190D01*
X116238095Y-110523809D01*
X116285714Y-110619047D01*
X116285714Y-110761904D01*
X116238095Y-110857142D01*
X116190476Y-110904761D01*
X116095238Y-110952380D01*
X115714285Y-110952380D01*
X115714285Y-109952380D01*
X116047619Y-109952380D01*
X116142857Y-110000000D01*
X116190476Y-110047619D01*
X116238095Y-110142857D01*
X116238095Y-110238095D01*
X116190476Y-110333333D01*
X116142857Y-110380952D01*
X116047619Y-110428571D01*
X115714285Y-110428571D01*
X117190476Y-110952380D02*
X116714285Y-110952380D01*
X116714285Y-109952380D01*
X117523809Y-110428571D02*
X117857142Y-110428571D01*
X118000000Y-110952380D02*
X117523809Y-110952380D01*
X117523809Y-109952380D01*
X118000000Y-109952380D01*
X131190476Y-110428571D02*
X131333333Y-110476190D01*
X131380952Y-110523809D01*
X131428571Y-110619047D01*
X131428571Y-110761904D01*
X131380952Y-110857142D01*
X131333333Y-110904761D01*
X131238095Y-110952380D01*
X130857142Y-110952380D01*
X130857142Y-109952380D01*
X131190476Y-109952380D01*
X131285714Y-110000000D01*
X131333333Y-110047619D01*
X131380952Y-110142857D01*
X131380952Y-110238095D01*
X131333333Y-110333333D01*
X131285714Y-110380952D01*
X131190476Y-110428571D01*
X130857142Y-110428571D01*
X131809523Y-110666666D02*
X132285714Y-110666666D01*
X131714285Y-110952380D02*
X132047619Y-109952380D01*
X132380952Y-110952380D01*
X132666666Y-110904761D02*
X132809523Y-110952380D01*
X133047619Y-110952380D01*
X133142857Y-110904761D01*
X133190476Y-110857142D01*
X133238095Y-110761904D01*
X133238095Y-110666666D01*
X133190476Y-110571428D01*
X133142857Y-110523809D01*
X133047619Y-110476190D01*
X132857142Y-110428571D01*
X132761904Y-110380952D01*
X132714285Y-110333333D01*
X132666666Y-110238095D01*
X132666666Y-110142857D01*
X132714285Y-110047619D01*
X132761904Y-110000000D01*
X132857142Y-109952380D01*
X133095238Y-109952380D01*
X133238095Y-110000000D01*
X133619047Y-110904761D02*
X133761904Y-110952380D01*
X134000000Y-110952380D01*
X134095238Y-110904761D01*
X134142857Y-110857142D01*
X134190476Y-110761904D01*
X134190476Y-110666666D01*
X134142857Y-110571428D01*
X134095238Y-110523809D01*
X134000000Y-110476190D01*
X133809523Y-110428571D01*
X133714285Y-110380952D01*
X133666666Y-110333333D01*
X133619047Y-110238095D01*
X133619047Y-110142857D01*
X133666666Y-110047619D01*
X133714285Y-110000000D01*
X133809523Y-109952380D01*
X134047619Y-109952380D01*
X134190476Y-110000000D01*
X83640000Y-142842380D02*
X83640000Y-141842380D01*
X84116190Y-142842380D02*
X84116190Y-141842380D01*
X84687619Y-142842380D01*
X84687619Y-141842380D01*
X85163809Y-142842380D02*
X85163809Y-141842380D01*
X85544761Y-141842380D01*
X85640000Y-141890000D01*
X85687619Y-141937619D01*
X85735238Y-142032857D01*
X85735238Y-142175714D01*
X85687619Y-142270952D01*
X85640000Y-142318571D01*
X85544761Y-142366190D01*
X85163809Y-142366190D01*
X86163809Y-141842380D02*
X86163809Y-142651904D01*
X86211428Y-142747142D01*
X86259047Y-142794761D01*
X86354285Y-142842380D01*
X86544761Y-142842380D01*
X86640000Y-142794761D01*
X86687619Y-142747142D01*
X86735238Y-142651904D01*
X86735238Y-141842380D01*
X87068571Y-141842380D02*
X87640000Y-141842380D01*
X87354285Y-142842380D02*
X87354285Y-141842380D01*
X88735238Y-142842380D02*
X88735238Y-141842380D01*
X89116190Y-141842380D01*
X89211428Y-141890000D01*
X89259047Y-141937619D01*
X89306666Y-142032857D01*
X89306666Y-142175714D01*
X89259047Y-142270952D01*
X89211428Y-142318571D01*
X89116190Y-142366190D01*
X88735238Y-142366190D01*
X89735238Y-142842380D02*
X89735238Y-141842380D01*
X90211428Y-142318571D02*
X90544761Y-142318571D01*
X90687619Y-142842380D02*
X90211428Y-142842380D01*
X90211428Y-141842380D01*
X90687619Y-141842380D01*
X91020952Y-141842380D02*
X91687619Y-141842380D01*
X91020952Y-142842380D01*
X91687619Y-142842380D01*
X92259047Y-141842380D02*
X92449523Y-141842380D01*
X92544761Y-141890000D01*
X92640000Y-141985238D01*
X92687619Y-142175714D01*
X92687619Y-142509047D01*
X92640000Y-142699523D01*
X92544761Y-142794761D01*
X92449523Y-142842380D01*
X92259047Y-142842380D01*
X92163809Y-142794761D01*
X92068571Y-142699523D01*
X92020952Y-142509047D01*
X92020952Y-142175714D01*
X92068571Y-141985238D01*
X92163809Y-141890000D01*
X92259047Y-141842380D01*
X85910000Y-150998095D02*
X85957619Y-150902857D01*
X85957619Y-150760000D01*
X85910000Y-150617142D01*
X85814761Y-150521904D01*
X85719523Y-150474285D01*
X85529047Y-150426666D01*
X85386190Y-150426666D01*
X85195714Y-150474285D01*
X85100476Y-150521904D01*
X85005238Y-150617142D01*
X84957619Y-150760000D01*
X84957619Y-150855238D01*
X85005238Y-150998095D01*
X85052857Y-151045714D01*
X85386190Y-151045714D01*
X85386190Y-150855238D01*
X84957619Y-151474285D02*
X85957619Y-151474285D01*
X84957619Y-152045714D01*
X85957619Y-152045714D01*
X84957619Y-152521904D02*
X85957619Y-152521904D01*
X85957619Y-152760000D01*
X85910000Y-152902857D01*
X85814761Y-152998095D01*
X85719523Y-153045714D01*
X85529047Y-153093333D01*
X85386190Y-153093333D01*
X85195714Y-153045714D01*
X85100476Y-152998095D01*
X85005238Y-152902857D01*
X84957619Y-152760000D01*
X84957619Y-152521904D01*
%TO.C,J4*%
X131562380Y-140653333D02*
X132276666Y-140653333D01*
X132419523Y-140700952D01*
X132514761Y-140796190D01*
X132562380Y-140939047D01*
X132562380Y-141034285D01*
X131895714Y-139748571D02*
X132562380Y-139748571D01*
X131514761Y-139986666D02*
X132229047Y-140224761D01*
X132229047Y-139605714D01*
%TO.C,R10*%
X135926380Y-158574857D02*
X135450190Y-158908190D01*
X135926380Y-159146285D02*
X134926380Y-159146285D01*
X134926380Y-158765333D01*
X134974000Y-158670095D01*
X135021619Y-158622476D01*
X135116857Y-158574857D01*
X135259714Y-158574857D01*
X135354952Y-158622476D01*
X135402571Y-158670095D01*
X135450190Y-158765333D01*
X135450190Y-159146285D01*
X135926380Y-157622476D02*
X135926380Y-158193904D01*
X135926380Y-157908190D02*
X134926380Y-157908190D01*
X135069238Y-158003428D01*
X135164476Y-158098666D01*
X135212095Y-158193904D01*
X134926380Y-157003428D02*
X134926380Y-156908190D01*
X134974000Y-156812952D01*
X135021619Y-156765333D01*
X135116857Y-156717714D01*
X135307333Y-156670095D01*
X135545428Y-156670095D01*
X135735904Y-156717714D01*
X135831142Y-156765333D01*
X135878761Y-156812952D01*
X135926380Y-156908190D01*
X135926380Y-157003428D01*
X135878761Y-157098666D01*
X135831142Y-157146285D01*
X135735904Y-157193904D01*
X135545428Y-157241523D01*
X135307333Y-157241523D01*
X135116857Y-157193904D01*
X135021619Y-157146285D01*
X134974000Y-157098666D01*
X134926380Y-157003428D01*
%TO.C,R9*%
X89749333Y-157748380D02*
X89416000Y-157272190D01*
X89177904Y-157748380D02*
X89177904Y-156748380D01*
X89558857Y-156748380D01*
X89654095Y-156796000D01*
X89701714Y-156843619D01*
X89749333Y-156938857D01*
X89749333Y-157081714D01*
X89701714Y-157176952D01*
X89654095Y-157224571D01*
X89558857Y-157272190D01*
X89177904Y-157272190D01*
X90225523Y-157748380D02*
X90416000Y-157748380D01*
X90511238Y-157700761D01*
X90558857Y-157653142D01*
X90654095Y-157510285D01*
X90701714Y-157319809D01*
X90701714Y-156938857D01*
X90654095Y-156843619D01*
X90606476Y-156796000D01*
X90511238Y-156748380D01*
X90320761Y-156748380D01*
X90225523Y-156796000D01*
X90177904Y-156843619D01*
X90130285Y-156938857D01*
X90130285Y-157176952D01*
X90177904Y-157272190D01*
X90225523Y-157319809D01*
X90320761Y-157367428D01*
X90511238Y-157367428D01*
X90606476Y-157319809D01*
X90654095Y-157272190D01*
X90701714Y-157176952D01*
%TO.C,C1*%
X98258333Y-140692142D02*
X98210714Y-140739761D01*
X98067857Y-140787380D01*
X97972619Y-140787380D01*
X97829761Y-140739761D01*
X97734523Y-140644523D01*
X97686904Y-140549285D01*
X97639285Y-140358809D01*
X97639285Y-140215952D01*
X97686904Y-140025476D01*
X97734523Y-139930238D01*
X97829761Y-139835000D01*
X97972619Y-139787380D01*
X98067857Y-139787380D01*
X98210714Y-139835000D01*
X98258333Y-139882619D01*
X99210714Y-140787380D02*
X98639285Y-140787380D01*
X98925000Y-140787380D02*
X98925000Y-139787380D01*
X98829761Y-139930238D01*
X98734523Y-140025476D01*
X98639285Y-140073095D01*
%TO.C,D2*%
X102661980Y-134545295D02*
X101661980Y-134545295D01*
X101661980Y-134307200D01*
X101709600Y-134164342D01*
X101804838Y-134069104D01*
X101900076Y-134021485D01*
X102090552Y-133973866D01*
X102233409Y-133973866D01*
X102423885Y-134021485D01*
X102519123Y-134069104D01*
X102614361Y-134164342D01*
X102661980Y-134307200D01*
X102661980Y-134545295D01*
X101757219Y-133592914D02*
X101709600Y-133545295D01*
X101661980Y-133450057D01*
X101661980Y-133211961D01*
X101709600Y-133116723D01*
X101757219Y-133069104D01*
X101852457Y-133021485D01*
X101947695Y-133021485D01*
X102090552Y-133069104D01*
X102661980Y-133640533D01*
X102661980Y-133021485D01*
%TO.C,C3*%
X97699142Y-119780666D02*
X97746761Y-119828285D01*
X97794380Y-119971142D01*
X97794380Y-120066380D01*
X97746761Y-120209238D01*
X97651523Y-120304476D01*
X97556285Y-120352095D01*
X97365809Y-120399714D01*
X97222952Y-120399714D01*
X97032476Y-120352095D01*
X96937238Y-120304476D01*
X96842000Y-120209238D01*
X96794380Y-120066380D01*
X96794380Y-119971142D01*
X96842000Y-119828285D01*
X96889619Y-119780666D01*
X96794380Y-119447333D02*
X96794380Y-118828285D01*
X97175333Y-119161619D01*
X97175333Y-119018761D01*
X97222952Y-118923523D01*
X97270571Y-118875904D01*
X97365809Y-118828285D01*
X97603904Y-118828285D01*
X97699142Y-118875904D01*
X97746761Y-118923523D01*
X97794380Y-119018761D01*
X97794380Y-119304476D01*
X97746761Y-119399714D01*
X97699142Y-119447333D01*
%TO.C,RV3*%
X108904761Y-110952380D02*
X108571428Y-110476190D01*
X108333333Y-110952380D02*
X108333333Y-109952380D01*
X108714285Y-109952380D01*
X108809523Y-110000000D01*
X108857142Y-110047619D01*
X108904761Y-110142857D01*
X108904761Y-110285714D01*
X108857142Y-110380952D01*
X108809523Y-110428571D01*
X108714285Y-110476190D01*
X108333333Y-110476190D01*
X109190476Y-109952380D02*
X109523809Y-110952380D01*
X109857142Y-109952380D01*
X110095238Y-109952380D02*
X110714285Y-109952380D01*
X110380952Y-110333333D01*
X110523809Y-110333333D01*
X110619047Y-110380952D01*
X110666666Y-110428571D01*
X110714285Y-110523809D01*
X110714285Y-110761904D01*
X110666666Y-110857142D01*
X110619047Y-110904761D01*
X110523809Y-110952380D01*
X110238095Y-110952380D01*
X110142857Y-110904761D01*
X110095238Y-110857142D01*
%TO.C,C4*%
X122785142Y-139866666D02*
X122832761Y-139914285D01*
X122880380Y-140057142D01*
X122880380Y-140152380D01*
X122832761Y-140295238D01*
X122737523Y-140390476D01*
X122642285Y-140438095D01*
X122451809Y-140485714D01*
X122308952Y-140485714D01*
X122118476Y-140438095D01*
X122023238Y-140390476D01*
X121928000Y-140295238D01*
X121880380Y-140152380D01*
X121880380Y-140057142D01*
X121928000Y-139914285D01*
X121975619Y-139866666D01*
X122213714Y-139009523D02*
X122880380Y-139009523D01*
X121832761Y-139247619D02*
X122547047Y-139485714D01*
X122547047Y-138866666D01*
%TO.C,D3*%
X102611180Y-129973295D02*
X101611180Y-129973295D01*
X101611180Y-129735200D01*
X101658800Y-129592342D01*
X101754038Y-129497104D01*
X101849276Y-129449485D01*
X102039752Y-129401866D01*
X102182609Y-129401866D01*
X102373085Y-129449485D01*
X102468323Y-129497104D01*
X102563561Y-129592342D01*
X102611180Y-129735200D01*
X102611180Y-129973295D01*
X101611180Y-129068533D02*
X101611180Y-128449485D01*
X101992133Y-128782819D01*
X101992133Y-128639961D01*
X102039752Y-128544723D01*
X102087371Y-128497104D01*
X102182609Y-128449485D01*
X102420704Y-128449485D01*
X102515942Y-128497104D01*
X102563561Y-128544723D01*
X102611180Y-128639961D01*
X102611180Y-128925676D01*
X102563561Y-129020914D01*
X102515942Y-129068533D01*
%TO.C,R7*%
X119087566Y-130976666D02*
X118611376Y-131310000D01*
X119087566Y-131548095D02*
X118087566Y-131548095D01*
X118087566Y-131167142D01*
X118135186Y-131071904D01*
X118182805Y-131024285D01*
X118278043Y-130976666D01*
X118420900Y-130976666D01*
X118516138Y-131024285D01*
X118563757Y-131071904D01*
X118611376Y-131167142D01*
X118611376Y-131548095D01*
X118087566Y-130643333D02*
X118087566Y-129976666D01*
X119087566Y-130405238D01*
%TO.C,R6*%
X130362627Y-130740110D02*
X129886437Y-131073444D01*
X130362627Y-131311539D02*
X129362627Y-131311539D01*
X129362627Y-130930586D01*
X129410247Y-130835348D01*
X129457866Y-130787729D01*
X129553104Y-130740110D01*
X129695961Y-130740110D01*
X129791199Y-130787729D01*
X129838818Y-130835348D01*
X129886437Y-130930586D01*
X129886437Y-131311539D01*
X129362627Y-129882967D02*
X129362627Y-130073444D01*
X129410247Y-130168682D01*
X129457866Y-130216301D01*
X129600723Y-130311539D01*
X129791199Y-130359158D01*
X130172151Y-130359158D01*
X130267389Y-130311539D01*
X130315008Y-130263920D01*
X130362627Y-130168682D01*
X130362627Y-129978205D01*
X130315008Y-129882967D01*
X130267389Y-129835348D01*
X130172151Y-129787729D01*
X129934056Y-129787729D01*
X129838818Y-129835348D01*
X129791199Y-129882967D01*
X129743580Y-129978205D01*
X129743580Y-130168682D01*
X129791199Y-130263920D01*
X129838818Y-130311539D01*
X129934056Y-130359158D01*
%TO.C,C7*%
X105132142Y-131611666D02*
X105179761Y-131659285D01*
X105227380Y-131802142D01*
X105227380Y-131897380D01*
X105179761Y-132040238D01*
X105084523Y-132135476D01*
X104989285Y-132183095D01*
X104798809Y-132230714D01*
X104655952Y-132230714D01*
X104465476Y-132183095D01*
X104370238Y-132135476D01*
X104275000Y-132040238D01*
X104227380Y-131897380D01*
X104227380Y-131802142D01*
X104275000Y-131659285D01*
X104322619Y-131611666D01*
X104227380Y-131278333D02*
X104227380Y-130611666D01*
X105227380Y-131040238D01*
%TO.C,C2*%
X101030003Y-110593142D02*
X100982384Y-110640761D01*
X100839527Y-110688380D01*
X100744289Y-110688380D01*
X100601431Y-110640761D01*
X100506193Y-110545523D01*
X100458574Y-110450285D01*
X100410955Y-110259809D01*
X100410955Y-110116952D01*
X100458574Y-109926476D01*
X100506193Y-109831238D01*
X100601431Y-109736000D01*
X100744289Y-109688380D01*
X100839527Y-109688380D01*
X100982384Y-109736000D01*
X101030003Y-109783619D01*
X101410955Y-109783619D02*
X101458574Y-109736000D01*
X101553812Y-109688380D01*
X101791908Y-109688380D01*
X101887146Y-109736000D01*
X101934765Y-109783619D01*
X101982384Y-109878857D01*
X101982384Y-109974095D01*
X101934765Y-110116952D01*
X101363336Y-110688380D01*
X101982384Y-110688380D01*
%TO.C,J2*%
X85312380Y-135588333D02*
X86026666Y-135588333D01*
X86169523Y-135635952D01*
X86264761Y-135731190D01*
X86312380Y-135874047D01*
X86312380Y-135969285D01*
X85407619Y-135159761D02*
X85360000Y-135112142D01*
X85312380Y-135016904D01*
X85312380Y-134778809D01*
X85360000Y-134683571D01*
X85407619Y-134635952D01*
X85502857Y-134588333D01*
X85598095Y-134588333D01*
X85740952Y-134635952D01*
X86312380Y-135207380D01*
X86312380Y-134588333D01*
%TO.C,D4*%
X102611180Y-125553695D02*
X101611180Y-125553695D01*
X101611180Y-125315600D01*
X101658800Y-125172742D01*
X101754038Y-125077504D01*
X101849276Y-125029885D01*
X102039752Y-124982266D01*
X102182609Y-124982266D01*
X102373085Y-125029885D01*
X102468323Y-125077504D01*
X102563561Y-125172742D01*
X102611180Y-125315600D01*
X102611180Y-125553695D01*
X101944514Y-124125123D02*
X102611180Y-124125123D01*
X101563561Y-124363219D02*
X102277847Y-124601314D01*
X102277847Y-123982266D01*
%TO.C,R5*%
X129413765Y-140590155D02*
X128937575Y-140923489D01*
X129413765Y-141161584D02*
X128413765Y-141161584D01*
X128413765Y-140780631D01*
X128461385Y-140685393D01*
X128509004Y-140637774D01*
X128604242Y-140590155D01*
X128747099Y-140590155D01*
X128842337Y-140637774D01*
X128889956Y-140685393D01*
X128937575Y-140780631D01*
X128937575Y-141161584D01*
X128413765Y-139685393D02*
X128413765Y-140161584D01*
X128889956Y-140209203D01*
X128842337Y-140161584D01*
X128794718Y-140066346D01*
X128794718Y-139828250D01*
X128842337Y-139733012D01*
X128889956Y-139685393D01*
X128985194Y-139637774D01*
X129223289Y-139637774D01*
X129318527Y-139685393D01*
X129366146Y-139733012D01*
X129413765Y-139828250D01*
X129413765Y-140066346D01*
X129366146Y-140161584D01*
X129318527Y-140209203D01*
%TO.C,J5*%
X126906666Y-154562380D02*
X126906666Y-155276666D01*
X126859047Y-155419523D01*
X126763809Y-155514761D01*
X126620952Y-155562380D01*
X126525714Y-155562380D01*
X127859047Y-154562380D02*
X127382857Y-154562380D01*
X127335238Y-155038571D01*
X127382857Y-154990952D01*
X127478095Y-154943333D01*
X127716190Y-154943333D01*
X127811428Y-154990952D01*
X127859047Y-155038571D01*
X127906666Y-155133809D01*
X127906666Y-155371904D01*
X127859047Y-155467142D01*
X127811428Y-155514761D01*
X127716190Y-155562380D01*
X127478095Y-155562380D01*
X127382857Y-155514761D01*
X127335238Y-155467142D01*
%TO.C,R3*%
X106626334Y-116272578D02*
X106150144Y-116605912D01*
X106626334Y-116844007D02*
X105626334Y-116844007D01*
X105626334Y-116463054D01*
X105673954Y-116367816D01*
X105721573Y-116320197D01*
X105816811Y-116272578D01*
X105959668Y-116272578D01*
X106054906Y-116320197D01*
X106102525Y-116367816D01*
X106150144Y-116463054D01*
X106150144Y-116844007D01*
X105626334Y-115939245D02*
X105626334Y-115320197D01*
X106007287Y-115653531D01*
X106007287Y-115510673D01*
X106054906Y-115415435D01*
X106102525Y-115367816D01*
X106197763Y-115320197D01*
X106435858Y-115320197D01*
X106531096Y-115367816D01*
X106578715Y-115415435D01*
X106626334Y-115510673D01*
X106626334Y-115796388D01*
X106578715Y-115891626D01*
X106531096Y-115939245D01*
%TO.C,U1*%
X107402380Y-141721904D02*
X108211904Y-141721904D01*
X108307142Y-141674285D01*
X108354761Y-141626666D01*
X108402380Y-141531428D01*
X108402380Y-141340952D01*
X108354761Y-141245714D01*
X108307142Y-141198095D01*
X108211904Y-141150476D01*
X107402380Y-141150476D01*
X108402380Y-140150476D02*
X108402380Y-140721904D01*
X108402380Y-140436190D02*
X107402380Y-140436190D01*
X107545238Y-140531428D01*
X107640476Y-140626666D01*
X107688095Y-140721904D01*
%TO.C,RV1*%
X111107380Y-156387738D02*
X110631190Y-156721071D01*
X111107380Y-156959166D02*
X110107380Y-156959166D01*
X110107380Y-156578214D01*
X110155000Y-156482976D01*
X110202619Y-156435357D01*
X110297857Y-156387738D01*
X110440714Y-156387738D01*
X110535952Y-156435357D01*
X110583571Y-156482976D01*
X110631190Y-156578214D01*
X110631190Y-156959166D01*
X110107380Y-156102023D02*
X111107380Y-155768690D01*
X110107380Y-155435357D01*
X111107380Y-154578214D02*
X111107380Y-155149642D01*
X111107380Y-154863928D02*
X110107380Y-154863928D01*
X110250238Y-154959166D01*
X110345476Y-155054404D01*
X110393095Y-155149642D01*
%TO.C,R1*%
X103957380Y-141136666D02*
X103481190Y-141470000D01*
X103957380Y-141708095D02*
X102957380Y-141708095D01*
X102957380Y-141327142D01*
X103005000Y-141231904D01*
X103052619Y-141184285D01*
X103147857Y-141136666D01*
X103290714Y-141136666D01*
X103385952Y-141184285D01*
X103433571Y-141231904D01*
X103481190Y-141327142D01*
X103481190Y-141708095D01*
X103957380Y-140184285D02*
X103957380Y-140755714D01*
X103957380Y-140470000D02*
X102957380Y-140470000D01*
X103100238Y-140565238D01*
X103195476Y-140660476D01*
X103243095Y-140755714D01*
%TO.C,C8*%
X113165558Y-129361951D02*
X113117939Y-129409570D01*
X112975082Y-129457189D01*
X112879844Y-129457189D01*
X112736986Y-129409570D01*
X112641748Y-129314332D01*
X112594129Y-129219094D01*
X112546510Y-129028618D01*
X112546510Y-128885761D01*
X112594129Y-128695285D01*
X112641748Y-128600047D01*
X112736986Y-128504809D01*
X112879844Y-128457189D01*
X112975082Y-128457189D01*
X113117939Y-128504809D01*
X113165558Y-128552428D01*
X113736986Y-128885761D02*
X113641748Y-128838142D01*
X113594129Y-128790523D01*
X113546510Y-128695285D01*
X113546510Y-128647666D01*
X113594129Y-128552428D01*
X113641748Y-128504809D01*
X113736986Y-128457189D01*
X113927463Y-128457189D01*
X114022701Y-128504809D01*
X114070320Y-128552428D01*
X114117939Y-128647666D01*
X114117939Y-128695285D01*
X114070320Y-128790523D01*
X114022701Y-128838142D01*
X113927463Y-128885761D01*
X113736986Y-128885761D01*
X113641748Y-128933380D01*
X113594129Y-128980999D01*
X113546510Y-129076237D01*
X113546510Y-129266713D01*
X113594129Y-129361951D01*
X113641748Y-129409570D01*
X113736986Y-129457189D01*
X113927463Y-129457189D01*
X114022701Y-129409570D01*
X114070320Y-129361951D01*
X114117939Y-129266713D01*
X114117939Y-129076237D01*
X114070320Y-128980999D01*
X114022701Y-128933380D01*
X113927463Y-128885761D01*
%TO.C,C9*%
X126075515Y-139866666D02*
X126123134Y-139914285D01*
X126170753Y-140057142D01*
X126170753Y-140152380D01*
X126123134Y-140295238D01*
X126027896Y-140390476D01*
X125932658Y-140438095D01*
X125742182Y-140485714D01*
X125599325Y-140485714D01*
X125408849Y-140438095D01*
X125313611Y-140390476D01*
X125218373Y-140295238D01*
X125170753Y-140152380D01*
X125170753Y-140057142D01*
X125218373Y-139914285D01*
X125265992Y-139866666D01*
X126170753Y-139390476D02*
X126170753Y-139200000D01*
X126123134Y-139104761D01*
X126075515Y-139057142D01*
X125932658Y-138961904D01*
X125742182Y-138914285D01*
X125361230Y-138914285D01*
X125265992Y-138961904D01*
X125218373Y-139009523D01*
X125170753Y-139104761D01*
X125170753Y-139295238D01*
X125218373Y-139390476D01*
X125265992Y-139438095D01*
X125361230Y-139485714D01*
X125599325Y-139485714D01*
X125694563Y-139438095D01*
X125742182Y-139390476D01*
X125789801Y-139295238D01*
X125789801Y-139104761D01*
X125742182Y-139009523D01*
X125694563Y-138961904D01*
X125599325Y-138914285D01*
%TO.C,RV2*%
X137404761Y-110952380D02*
X137071428Y-110476190D01*
X136833333Y-110952380D02*
X136833333Y-109952380D01*
X137214285Y-109952380D01*
X137309523Y-110000000D01*
X137357142Y-110047619D01*
X137404761Y-110142857D01*
X137404761Y-110285714D01*
X137357142Y-110380952D01*
X137309523Y-110428571D01*
X137214285Y-110476190D01*
X136833333Y-110476190D01*
X137690476Y-109952380D02*
X138023809Y-110952380D01*
X138357142Y-109952380D01*
X138642857Y-110047619D02*
X138690476Y-110000000D01*
X138785714Y-109952380D01*
X139023809Y-109952380D01*
X139119047Y-110000000D01*
X139166666Y-110047619D01*
X139214285Y-110142857D01*
X139214285Y-110238095D01*
X139166666Y-110380952D01*
X138595238Y-110952380D01*
X139214285Y-110952380D01*
%TO.C,R8*%
X108402380Y-130341666D02*
X107926190Y-130675000D01*
X108402380Y-130913095D02*
X107402380Y-130913095D01*
X107402380Y-130532142D01*
X107450000Y-130436904D01*
X107497619Y-130389285D01*
X107592857Y-130341666D01*
X107735714Y-130341666D01*
X107830952Y-130389285D01*
X107878571Y-130436904D01*
X107926190Y-130532142D01*
X107926190Y-130913095D01*
X107830952Y-129770238D02*
X107783333Y-129865476D01*
X107735714Y-129913095D01*
X107640476Y-129960714D01*
X107592857Y-129960714D01*
X107497619Y-129913095D01*
X107450000Y-129865476D01*
X107402380Y-129770238D01*
X107402380Y-129579761D01*
X107450000Y-129484523D01*
X107497619Y-129436904D01*
X107592857Y-129389285D01*
X107640476Y-129389285D01*
X107735714Y-129436904D01*
X107783333Y-129484523D01*
X107830952Y-129579761D01*
X107830952Y-129770238D01*
X107878571Y-129865476D01*
X107926190Y-129913095D01*
X108021428Y-129960714D01*
X108211904Y-129960714D01*
X108307142Y-129913095D01*
X108354761Y-129865476D01*
X108402380Y-129770238D01*
X108402380Y-129579761D01*
X108354761Y-129484523D01*
X108307142Y-129436904D01*
X108211904Y-129389285D01*
X108021428Y-129389285D01*
X107926190Y-129436904D01*
X107878571Y-129484523D01*
X107830952Y-129579761D01*
%TO.C,C10*%
X112768142Y-133339142D02*
X112720523Y-133386761D01*
X112577666Y-133434380D01*
X112482428Y-133434380D01*
X112339571Y-133386761D01*
X112244333Y-133291523D01*
X112196714Y-133196285D01*
X112149095Y-133005809D01*
X112149095Y-132862952D01*
X112196714Y-132672476D01*
X112244333Y-132577238D01*
X112339571Y-132482000D01*
X112482428Y-132434380D01*
X112577666Y-132434380D01*
X112720523Y-132482000D01*
X112768142Y-132529619D01*
X113720523Y-133434380D02*
X113149095Y-133434380D01*
X113434809Y-133434380D02*
X113434809Y-132434380D01*
X113339571Y-132577238D01*
X113244333Y-132672476D01*
X113149095Y-132720095D01*
X114339571Y-132434380D02*
X114434809Y-132434380D01*
X114530047Y-132482000D01*
X114577666Y-132529619D01*
X114625285Y-132624857D01*
X114672904Y-132815333D01*
X114672904Y-133053428D01*
X114625285Y-133243904D01*
X114577666Y-133339142D01*
X114530047Y-133386761D01*
X114434809Y-133434380D01*
X114339571Y-133434380D01*
X114244333Y-133386761D01*
X114196714Y-133339142D01*
X114149095Y-133243904D01*
X114101476Y-133053428D01*
X114101476Y-132815333D01*
X114149095Y-132624857D01*
X114196714Y-132529619D01*
X114244333Y-132482000D01*
X114339571Y-132434380D01*
%TO.C,C11*%
X137710942Y-153581254D02*
X137663323Y-153628873D01*
X137520466Y-153676492D01*
X137425228Y-153676492D01*
X137282371Y-153628873D01*
X137187133Y-153533635D01*
X137139514Y-153438397D01*
X137091895Y-153247921D01*
X137091895Y-153105064D01*
X137139514Y-152914588D01*
X137187133Y-152819350D01*
X137282371Y-152724112D01*
X137425228Y-152676492D01*
X137520466Y-152676492D01*
X137663323Y-152724112D01*
X137710942Y-152771731D01*
X138663323Y-153676492D02*
X138091895Y-153676492D01*
X138377609Y-153676492D02*
X138377609Y-152676492D01*
X138282371Y-152819350D01*
X138187133Y-152914588D01*
X138091895Y-152962207D01*
X139615704Y-153676492D02*
X139044276Y-153676492D01*
X139329990Y-153676492D02*
X139329990Y-152676492D01*
X139234752Y-152819350D01*
X139139514Y-152914588D01*
X139044276Y-152962207D01*
%TO.C,J3*%
X82306666Y-127434880D02*
X82306666Y-128149166D01*
X82259047Y-128292023D01*
X82163809Y-128387261D01*
X82020952Y-128434880D01*
X81925714Y-128434880D01*
X82687619Y-127434880D02*
X83306666Y-127434880D01*
X82973333Y-127815833D01*
X83116190Y-127815833D01*
X83211428Y-127863452D01*
X83259047Y-127911071D01*
X83306666Y-128006309D01*
X83306666Y-128244404D01*
X83259047Y-128339642D01*
X83211428Y-128387261D01*
X83116190Y-128434880D01*
X82830476Y-128434880D01*
X82735238Y-128387261D01*
X82687619Y-128339642D01*
%TO.C,R4*%
X137612380Y-130722666D02*
X137136190Y-131056000D01*
X137612380Y-131294095D02*
X136612380Y-131294095D01*
X136612380Y-130913142D01*
X136660000Y-130817904D01*
X136707619Y-130770285D01*
X136802857Y-130722666D01*
X136945714Y-130722666D01*
X137040952Y-130770285D01*
X137088571Y-130817904D01*
X137136190Y-130913142D01*
X137136190Y-131294095D01*
X136945714Y-129865523D02*
X137612380Y-129865523D01*
X136564761Y-130103619D02*
X137279047Y-130341714D01*
X137279047Y-129722666D01*
%TO.C,D1*%
X95665879Y-115903369D02*
X94665879Y-115903369D01*
X94665879Y-115665274D01*
X94713499Y-115522416D01*
X94808737Y-115427178D01*
X94903975Y-115379559D01*
X95094451Y-115331940D01*
X95237308Y-115331940D01*
X95427784Y-115379559D01*
X95523022Y-115427178D01*
X95618260Y-115522416D01*
X95665879Y-115665274D01*
X95665879Y-115903369D01*
X95665879Y-114379559D02*
X95665879Y-114950988D01*
X95665879Y-114665274D02*
X94665879Y-114665274D01*
X94808737Y-114760512D01*
X94903975Y-114855750D01*
X94951594Y-114950988D01*
X93602380Y-119641904D02*
X92602380Y-119641904D01*
X93602380Y-119070476D02*
X93030952Y-119499047D01*
X92602380Y-119070476D02*
X93173809Y-119641904D01*
%TO.C,C5*%
X133707142Y-129412666D02*
X133754761Y-129460285D01*
X133802380Y-129603142D01*
X133802380Y-129698380D01*
X133754761Y-129841238D01*
X133659523Y-129936476D01*
X133564285Y-129984095D01*
X133373809Y-130031714D01*
X133230952Y-130031714D01*
X133040476Y-129984095D01*
X132945238Y-129936476D01*
X132850000Y-129841238D01*
X132802380Y-129698380D01*
X132802380Y-129603142D01*
X132850000Y-129460285D01*
X132897619Y-129412666D01*
X132802380Y-128507904D02*
X132802380Y-128984095D01*
X133278571Y-129031714D01*
X133230952Y-128984095D01*
X133183333Y-128888857D01*
X133183333Y-128650761D01*
X133230952Y-128555523D01*
X133278571Y-128507904D01*
X133373809Y-128460285D01*
X133611904Y-128460285D01*
X133707142Y-128507904D01*
X133754761Y-128555523D01*
X133802380Y-128650761D01*
X133802380Y-128888857D01*
X133754761Y-128984095D01*
X133707142Y-129031714D01*
%TO.C,R2*%
X119192380Y-141096666D02*
X118716190Y-141430000D01*
X119192380Y-141668095D02*
X118192380Y-141668095D01*
X118192380Y-141287142D01*
X118240000Y-141191904D01*
X118287619Y-141144285D01*
X118382857Y-141096666D01*
X118525714Y-141096666D01*
X118620952Y-141144285D01*
X118668571Y-141191904D01*
X118716190Y-141287142D01*
X118716190Y-141668095D01*
X118287619Y-140715714D02*
X118240000Y-140668095D01*
X118192380Y-140572857D01*
X118192380Y-140334761D01*
X118240000Y-140239523D01*
X118287619Y-140191904D01*
X118382857Y-140144285D01*
X118478095Y-140144285D01*
X118620952Y-140191904D01*
X119192380Y-140763333D01*
X119192380Y-140144285D01*
%TO.C,J1*%
X95582380Y-149123333D02*
X96296666Y-149123333D01*
X96439523Y-149170952D01*
X96534761Y-149266190D01*
X96582380Y-149409047D01*
X96582380Y-149504285D01*
X96582380Y-148123333D02*
X96582380Y-148694761D01*
X96582380Y-148409047D02*
X95582380Y-148409047D01*
X95725238Y-148504285D01*
X95820476Y-148599523D01*
X95868095Y-148694761D01*
%TO.C,C6*%
X126862884Y-129735007D02*
X126910503Y-129782626D01*
X126958122Y-129925483D01*
X126958122Y-130020721D01*
X126910503Y-130163579D01*
X126815265Y-130258817D01*
X126720027Y-130306436D01*
X126529551Y-130354055D01*
X126386694Y-130354055D01*
X126196218Y-130306436D01*
X126100980Y-130258817D01*
X126005742Y-130163579D01*
X125958122Y-130020721D01*
X125958122Y-129925483D01*
X126005742Y-129782626D01*
X126053361Y-129735007D01*
X125958122Y-128877864D02*
X125958122Y-129068341D01*
X126005742Y-129163579D01*
X126053361Y-129211198D01*
X126196218Y-129306436D01*
X126386694Y-129354055D01*
X126767646Y-129354055D01*
X126862884Y-129306436D01*
X126910503Y-129258817D01*
X126958122Y-129163579D01*
X126958122Y-128973102D01*
X126910503Y-128877864D01*
X126862884Y-128830245D01*
X126767646Y-128782626D01*
X126529551Y-128782626D01*
X126434313Y-128830245D01*
X126386694Y-128877864D01*
X126339075Y-128973102D01*
X126339075Y-129163579D01*
X126386694Y-129258817D01*
X126434313Y-129306436D01*
X126529551Y-129354055D01*
D11*
%TO.C,J4*%
X134747000Y-146050000D02*
X134747000Y-135890000D01*
X133477000Y-135890000D02*
X133477000Y-146050000D01*
X141097000Y-146050000D02*
X141097000Y-135890000D01*
X141097000Y-135890000D02*
X133477000Y-135890000D01*
X133477000Y-146050000D02*
X141097000Y-146050000D01*
%TO.C,R10*%
X134012000Y-154718000D02*
X134342000Y-154718000D01*
X134342000Y-161258000D02*
X134012000Y-161258000D01*
X136422000Y-161258000D02*
X136752000Y-161258000D01*
X136752000Y-161258000D02*
X136752000Y-154718000D01*
X134012000Y-161258000D02*
X134012000Y-154718000D01*
X136752000Y-154718000D02*
X136422000Y-154718000D01*
%TO.C,R9*%
X86646000Y-155856000D02*
X86646000Y-156186000D01*
X93186000Y-158596000D02*
X86646000Y-158596000D01*
X93186000Y-155856000D02*
X86646000Y-155856000D01*
X93186000Y-156186000D02*
X93186000Y-155856000D01*
X93186000Y-158266000D02*
X93186000Y-158596000D01*
X86646000Y-158596000D02*
X86646000Y-158266000D01*
%TO.C,C1*%
X96884000Y-146184600D02*
X96884000Y-145159600D01*
X97404000Y-143079600D02*
X97404000Y-141754600D01*
X96644000Y-143079600D02*
X96644000Y-142255600D01*
X96684000Y-146020600D02*
X96684000Y-145159600D01*
X97364000Y-143079600D02*
X97364000Y-141771600D01*
X98125000Y-146680600D02*
X98125000Y-145159600D01*
X96684000Y-143079600D02*
X96684000Y-142218600D01*
X98405000Y-146699600D02*
X98405000Y-141539600D01*
X97124000Y-143079600D02*
X97124000Y-141895600D01*
X97484000Y-143079600D02*
X97484000Y-141721600D01*
X96524000Y-145862600D02*
X96524000Y-145159600D01*
X97404000Y-146484600D02*
X97404000Y-145159600D01*
X96284000Y-143079600D02*
X96284000Y-142676600D01*
X97644000Y-146574600D02*
X97644000Y-145159600D01*
X97284000Y-143079600D02*
X97284000Y-141809600D01*
X96724000Y-146056600D02*
X96724000Y-145159600D01*
X96564000Y-145904600D02*
X96564000Y-145159600D01*
X96644000Y-145983600D02*
X96644000Y-145159600D01*
X96804000Y-146123600D02*
X96804000Y-145159600D01*
X100999775Y-145844600D02*
X100999775Y-145344600D01*
X98205000Y-146688600D02*
X98205000Y-145159600D01*
X97925000Y-143079600D02*
X97925000Y-141591600D01*
X96604000Y-145945600D02*
X96604000Y-145159600D01*
X96204000Y-143079600D02*
X96204000Y-142800600D01*
X96204000Y-145438600D02*
X96204000Y-145159600D01*
X96804000Y-143079600D02*
X96804000Y-142115600D01*
X95844000Y-144403600D02*
X95844000Y-143835600D01*
X97564000Y-143079600D02*
X97564000Y-141691600D01*
X96164000Y-145370600D02*
X96164000Y-145159600D01*
X97124000Y-146343600D02*
X97124000Y-145159600D01*
X96724000Y-143079600D02*
X96724000Y-142182600D01*
X101249775Y-145594600D02*
X100749775Y-145594600D01*
X97925000Y-146647600D02*
X97925000Y-145159600D01*
X95884000Y-144637600D02*
X95884000Y-143601600D01*
X96364000Y-143079600D02*
X96364000Y-142565600D01*
X97765000Y-146610600D02*
X97765000Y-145159600D01*
X97684000Y-146587600D02*
X97684000Y-145159600D01*
X96924000Y-143079600D02*
X96924000Y-142024600D01*
X97324000Y-146448600D02*
X97324000Y-145159600D01*
X98445000Y-146699600D02*
X98445000Y-141539600D01*
X96004000Y-145034600D02*
X96004000Y-143204600D01*
X97644000Y-143079600D02*
X97644000Y-141664600D01*
X97885000Y-143079600D02*
X97885000Y-141599600D01*
X98285000Y-146695600D02*
X98285000Y-141543600D01*
X98005000Y-146662600D02*
X98005000Y-145159600D01*
X98005000Y-143079600D02*
X98005000Y-141576600D01*
X95924000Y-144796600D02*
X95924000Y-143442600D01*
X97244000Y-143079600D02*
X97244000Y-141829600D01*
X96884000Y-143079600D02*
X96884000Y-142054600D01*
X96484000Y-145818600D02*
X96484000Y-145159600D01*
X97805000Y-143079600D02*
X97805000Y-141618600D01*
X96284000Y-145562600D02*
X96284000Y-145159600D01*
X96444000Y-145772600D02*
X96444000Y-145159600D01*
X97164000Y-143079600D02*
X97164000Y-141872600D01*
X96084000Y-145217600D02*
X96084000Y-143021600D01*
X96964000Y-146241600D02*
X96964000Y-145159600D01*
X97724000Y-143079600D02*
X97724000Y-141639600D01*
X96124000Y-145297600D02*
X96124000Y-142941600D01*
X96844000Y-143079600D02*
X96844000Y-142084600D01*
X96604000Y-143079600D02*
X96604000Y-142293600D01*
X97044000Y-143079600D02*
X97044000Y-141944600D01*
X98045000Y-146669600D02*
X98045000Y-145159600D01*
X97244000Y-146409600D02*
X97244000Y-145159600D01*
X96444000Y-143079600D02*
X96444000Y-142466600D01*
X98365000Y-146698600D02*
X98365000Y-141540600D01*
X96364000Y-145673600D02*
X96364000Y-145159600D01*
X97564000Y-146547600D02*
X97564000Y-145159600D01*
X98085000Y-143079600D02*
X98085000Y-141563600D01*
X97684000Y-143079600D02*
X97684000Y-141651600D01*
X96524000Y-143079600D02*
X96524000Y-142376600D01*
X97524000Y-146533600D02*
X97524000Y-145159600D01*
X97204000Y-146387600D02*
X97204000Y-145159600D01*
X97484000Y-146517600D02*
X97484000Y-145159600D01*
X97604000Y-146561600D02*
X97604000Y-145159600D01*
X97004000Y-146268600D02*
X97004000Y-145159600D01*
X97044000Y-146294600D02*
X97044000Y-145159600D01*
X96404000Y-145724600D02*
X96404000Y-145159600D01*
X97004000Y-143079600D02*
X97004000Y-141970600D01*
X96044000Y-145130600D02*
X96044000Y-143108600D01*
X97845000Y-143079600D02*
X97845000Y-141608600D01*
X97524000Y-143079600D02*
X97524000Y-141705600D01*
X98205000Y-143079600D02*
X98205000Y-141550600D01*
X96964000Y-143079600D02*
X96964000Y-141997600D01*
X98165000Y-143079600D02*
X98165000Y-141554600D01*
X98245000Y-146692600D02*
X98245000Y-141546600D01*
X98325000Y-146697600D02*
X98325000Y-141541600D01*
X97164000Y-146366600D02*
X97164000Y-145159600D01*
X96924000Y-146214600D02*
X96924000Y-145159600D01*
X97324000Y-143079600D02*
X97324000Y-141790600D01*
X97965000Y-143079600D02*
X97965000Y-141583600D01*
X96564000Y-143079600D02*
X96564000Y-142334600D01*
X98165000Y-146684600D02*
X98165000Y-145159600D01*
X98045000Y-143079600D02*
X98045000Y-141569600D01*
X97444000Y-146501600D02*
X97444000Y-145159600D01*
X96844000Y-146154600D02*
X96844000Y-145159600D01*
X96324000Y-145619600D02*
X96324000Y-145159600D01*
X97604000Y-143079600D02*
X97604000Y-141677600D01*
X98085000Y-146675600D02*
X98085000Y-145159600D01*
X96244000Y-145502600D02*
X96244000Y-145159600D01*
X96324000Y-143079600D02*
X96324000Y-142619600D01*
X97204000Y-143079600D02*
X97204000Y-141851600D01*
X98125000Y-143079600D02*
X98125000Y-141558600D01*
X96404000Y-143079600D02*
X96404000Y-142514600D01*
X97084000Y-143079600D02*
X97084000Y-141919600D01*
X97805000Y-146620600D02*
X97805000Y-145159600D01*
X96764000Y-143079600D02*
X96764000Y-142148600D01*
X97885000Y-146639600D02*
X97885000Y-145159600D01*
X97765000Y-143079600D02*
X97765000Y-141628600D01*
X97284000Y-146429600D02*
X97284000Y-145159600D01*
X97965000Y-146655600D02*
X97965000Y-145159600D01*
X97845000Y-146630600D02*
X97845000Y-145159600D01*
X96244000Y-143079600D02*
X96244000Y-142736600D01*
X96484000Y-143079600D02*
X96484000Y-142420600D01*
X97444000Y-143079600D02*
X97444000Y-141737600D01*
X97084000Y-146319600D02*
X97084000Y-145159600D01*
X95964000Y-144924600D02*
X95964000Y-143314600D01*
X96764000Y-146090600D02*
X96764000Y-145159600D01*
X97724000Y-146599600D02*
X97724000Y-145159600D01*
X96164000Y-143079600D02*
X96164000Y-142868600D01*
X97364000Y-146467600D02*
X97364000Y-145159600D01*
X101065000Y-144119600D02*
G75*
G03*
X101065000Y-144119600I-2620000J0D01*
G01*
%TO.C,J9*%
X80500833Y-161000000D02*
G75*
G03*
X80500833Y-161000000I-1500833J0D01*
G01*
%TO.C,D2*%
X97393400Y-132774400D02*
X97393400Y-132930400D01*
X97393400Y-135090400D02*
X97393400Y-135246400D01*
X97912439Y-135090400D02*
G75*
G03*
X99994530Y-135090237I1040961J1080000D01*
G01*
X99994530Y-132930563D02*
G75*
G03*
X97912439Y-132930400I-1041130J-1079837D01*
G01*
X97393400Y-135245916D02*
G75*
G03*
X100625735Y-135089008I1560000J1235517D01*
G01*
X100625735Y-132931792D02*
G75*
G03*
X97393400Y-132774884I-1672335J-1078609D01*
G01*
%TO.C,C3*%
X98650000Y-118773000D02*
X100052000Y-118773000D01*
X99266000Y-117773000D02*
X100052000Y-117773000D01*
X102132000Y-117573000D02*
X102697000Y-117573000D01*
X98710000Y-118613000D02*
X100052000Y-118613000D01*
X98536000Y-119254000D02*
X100052000Y-119254000D01*
X99592000Y-117493000D02*
X100052000Y-117493000D01*
X98868000Y-118293000D02*
X100052000Y-118293000D01*
X98678000Y-118693000D02*
X100052000Y-118693000D01*
X102132000Y-118773000D02*
X103534000Y-118773000D01*
X102132000Y-119334000D02*
X103657000Y-119334000D01*
X99994000Y-117253000D02*
X102190000Y-117253000D01*
X99155000Y-117893000D02*
X100052000Y-117893000D01*
X99649000Y-117453000D02*
X100052000Y-117453000D01*
X98572000Y-119054000D02*
X100052000Y-119054000D01*
X99349000Y-117693000D02*
X100052000Y-117693000D01*
X98997000Y-118093000D02*
X100052000Y-118093000D01*
X102132000Y-118853000D02*
X103560000Y-118853000D01*
X102132000Y-118573000D02*
X103457000Y-118573000D01*
X99228000Y-117813000D02*
X100052000Y-117813000D01*
X102132000Y-118653000D02*
X103490000Y-118653000D01*
X102132000Y-117853000D02*
X102993000Y-117853000D01*
X102132000Y-118373000D02*
X103360000Y-118373000D01*
X98970000Y-118133000D02*
X100052000Y-118133000D01*
X102132000Y-119174000D02*
X103635000Y-119174000D01*
X102132000Y-119054000D02*
X103612000Y-119054000D01*
X98601000Y-118934000D02*
X100052000Y-118934000D01*
X99057000Y-118013000D02*
X100052000Y-118013000D01*
X99393000Y-117653000D02*
X100052000Y-117653000D01*
X99538000Y-117533000D02*
X100052000Y-117533000D01*
X102132000Y-118613000D02*
X103474000Y-118613000D01*
X102132000Y-117733000D02*
X102877000Y-117733000D01*
X102132000Y-118133000D02*
X103214000Y-118133000D01*
X100808000Y-117013000D02*
X101376000Y-117013000D01*
X98802000Y-118413000D02*
X100052000Y-118413000D01*
X102132000Y-117493000D02*
X102592000Y-117493000D01*
X98637000Y-118813000D02*
X100052000Y-118813000D01*
X100415000Y-117093000D02*
X101769000Y-117093000D01*
X98943000Y-118173000D02*
X100052000Y-118173000D01*
X98917000Y-118213000D02*
X100052000Y-118213000D01*
X99709000Y-117413000D02*
X100052000Y-117413000D01*
X99121000Y-117933000D02*
X100052000Y-117933000D01*
X98516000Y-119454000D02*
X103668000Y-119454000D01*
X102132000Y-117453000D02*
X102535000Y-117453000D01*
X99307000Y-117733000D02*
X100052000Y-117733000D01*
X102132000Y-117933000D02*
X103063000Y-117933000D01*
X102132000Y-117533000D02*
X102646000Y-117533000D01*
X102132000Y-118974000D02*
X103593000Y-118974000D01*
X102132000Y-119094000D02*
X103620000Y-119094000D01*
X98514000Y-119494000D02*
X103670000Y-119494000D01*
X102132000Y-118453000D02*
X103402000Y-118453000D01*
X99617000Y-122418775D02*
X99617000Y-121918775D01*
X98556000Y-119134000D02*
X100052000Y-119134000D01*
X102132000Y-118293000D02*
X103316000Y-118293000D01*
X98531000Y-119294000D02*
X100052000Y-119294000D01*
X100574000Y-117053000D02*
X101610000Y-117053000D01*
X102132000Y-118013000D02*
X103127000Y-118013000D01*
X102132000Y-117773000D02*
X102918000Y-117773000D01*
X98513000Y-119534000D02*
X103671000Y-119534000D01*
X102132000Y-117653000D02*
X102791000Y-117653000D01*
X99367000Y-122168775D02*
X99867000Y-122168775D01*
X98694000Y-118653000D02*
X100052000Y-118653000D01*
X99914000Y-117293000D02*
X102270000Y-117293000D01*
X102132000Y-118093000D02*
X103187000Y-118093000D01*
X102132000Y-117413000D02*
X102475000Y-117413000D01*
X102132000Y-117973000D02*
X103096000Y-117973000D01*
X102132000Y-118893000D02*
X103572000Y-118893000D01*
X98581000Y-119014000D02*
X100052000Y-119014000D01*
X100177000Y-117173000D02*
X102007000Y-117173000D01*
X98744000Y-118533000D02*
X100052000Y-118533000D01*
X102132000Y-117693000D02*
X102835000Y-117693000D01*
X102132000Y-117333000D02*
X102343000Y-117333000D01*
X102132000Y-118173000D02*
X103241000Y-118173000D01*
X98591000Y-118974000D02*
X100052000Y-118974000D01*
X98782000Y-118453000D02*
X100052000Y-118453000D01*
X102132000Y-119214000D02*
X103642000Y-119214000D01*
X98523000Y-119374000D02*
X100052000Y-119374000D01*
X102132000Y-117613000D02*
X102745000Y-117613000D01*
X102132000Y-118053000D02*
X103157000Y-118053000D01*
X100081000Y-117213000D02*
X102103000Y-117213000D01*
X102132000Y-119014000D02*
X103603000Y-119014000D01*
X98564000Y-119094000D02*
X100052000Y-119094000D01*
X102132000Y-119134000D02*
X103628000Y-119134000D01*
X99487000Y-117573000D02*
X100052000Y-117573000D01*
X98763000Y-118493000D02*
X100052000Y-118493000D01*
X99191000Y-117853000D02*
X100052000Y-117853000D01*
X102132000Y-118333000D02*
X103339000Y-118333000D01*
X100287000Y-117133000D02*
X101897000Y-117133000D01*
X102132000Y-119294000D02*
X103653000Y-119294000D01*
X98519000Y-119414000D02*
X103665000Y-119414000D01*
X98549000Y-119174000D02*
X100052000Y-119174000D01*
X102132000Y-117813000D02*
X102956000Y-117813000D01*
X102132000Y-118693000D02*
X103506000Y-118693000D01*
X98612000Y-118893000D02*
X100052000Y-118893000D01*
X99027000Y-118053000D02*
X100052000Y-118053000D01*
X98845000Y-118333000D02*
X100052000Y-118333000D01*
X98892000Y-118253000D02*
X100052000Y-118253000D01*
X102132000Y-118533000D02*
X103440000Y-118533000D01*
X102132000Y-117373000D02*
X102411000Y-117373000D01*
X98512000Y-119574000D02*
X103672000Y-119574000D01*
X102132000Y-118813000D02*
X103547000Y-118813000D01*
X99841000Y-117333000D02*
X100052000Y-117333000D01*
X98512000Y-119614000D02*
X103672000Y-119614000D01*
X102132000Y-118213000D02*
X103267000Y-118213000D01*
X102132000Y-117893000D02*
X103029000Y-117893000D01*
X98527000Y-119334000D02*
X100052000Y-119334000D01*
X98664000Y-118733000D02*
X100052000Y-118733000D01*
X98727000Y-118573000D02*
X100052000Y-118573000D01*
X102132000Y-118934000D02*
X103583000Y-118934000D01*
X99439000Y-117613000D02*
X100052000Y-117613000D01*
X102132000Y-118253000D02*
X103292000Y-118253000D01*
X102132000Y-118733000D02*
X103520000Y-118733000D01*
X102132000Y-119374000D02*
X103661000Y-119374000D01*
X102132000Y-119254000D02*
X103648000Y-119254000D01*
X99088000Y-117973000D02*
X100052000Y-117973000D01*
X99773000Y-117373000D02*
X100052000Y-117373000D01*
X98824000Y-118373000D02*
X100052000Y-118373000D01*
X98624000Y-118853000D02*
X100052000Y-118853000D01*
X98542000Y-119214000D02*
X100052000Y-119214000D01*
X102132000Y-118413000D02*
X103382000Y-118413000D01*
X102132000Y-118493000D02*
X103421000Y-118493000D01*
X103712000Y-119614000D02*
G75*
G03*
X103712000Y-119614000I-2620000J0D01*
G01*
%TO.C,RV3*%
X118616000Y-114676500D02*
X112016000Y-114676500D01*
D12*
X110316000Y-120554500D02*
X110316000Y-122332500D01*
D11*
X120366000Y-113276500D02*
X120366000Y-116826500D01*
X115316000Y-114726500D02*
X115316000Y-117076500D01*
X112016000Y-111976500D02*
X118616000Y-111976500D01*
X118616000Y-111976500D02*
X118616000Y-114676500D01*
X118616000Y-113276500D02*
X120366000Y-113276500D01*
D12*
X115396000Y-120554500D02*
X115396000Y-122332500D01*
D11*
X110266000Y-113276500D02*
X110266000Y-116876500D01*
X115366000Y-114676500D02*
X114366000Y-115626500D01*
X112016000Y-114676500D02*
X112016000Y-111976500D01*
X112016000Y-113276500D02*
X110266000Y-113276500D01*
X115316000Y-114676500D02*
X116266000Y-115676500D01*
D12*
X120222000Y-120554500D02*
X120222000Y-122332500D01*
D11*
%TO.C,C4*%
X121058000Y-137080000D02*
X121058000Y-142320000D01*
X121373000Y-137080000D02*
X121058000Y-137080000D01*
X121373000Y-142320000D02*
X121058000Y-142320000D01*
X123798000Y-137080000D02*
X123798000Y-142320000D01*
X123798000Y-137080000D02*
X123483000Y-137080000D01*
X123798000Y-142320000D02*
X123483000Y-142320000D01*
%TO.C,D3*%
X97398400Y-128202400D02*
X97398400Y-128358400D01*
X97398400Y-130518400D02*
X97398400Y-130674400D01*
X100630735Y-128359792D02*
G75*
G03*
X97398400Y-128202884I-1672335J-1078609D01*
G01*
X99999530Y-128358563D02*
G75*
G03*
X97917439Y-128358400I-1041130J-1079837D01*
G01*
X97398400Y-130673916D02*
G75*
G03*
X100630735Y-130517008I1560000J1235517D01*
G01*
X97917439Y-130518400D02*
G75*
G03*
X99999530Y-130518237I1040961J1080000D01*
G01*
%TO.C,R7*%
X119988000Y-134080000D02*
X119988000Y-127540000D01*
X117248000Y-134080000D02*
X117248000Y-127540000D01*
X117248000Y-127540000D02*
X117578000Y-127540000D01*
X117578000Y-134080000D02*
X117248000Y-134080000D01*
X119658000Y-134080000D02*
X119988000Y-134080000D01*
X119988000Y-127540000D02*
X119658000Y-127540000D01*
%TO.C,R6*%
X131370000Y-133826000D02*
X131040000Y-133826000D01*
X131370000Y-127286000D02*
X131370000Y-133826000D01*
X128630000Y-133826000D02*
X128960000Y-133826000D01*
X131040000Y-127286000D02*
X131370000Y-127286000D01*
X128630000Y-127286000D02*
X128630000Y-133826000D01*
X128960000Y-127286000D02*
X128630000Y-127286000D01*
%TO.C,C7*%
X103405000Y-134065000D02*
X103720000Y-134065000D01*
X105830000Y-128825000D02*
X106145000Y-128825000D01*
X106145000Y-134065000D02*
X106145000Y-128825000D01*
X103405000Y-128825000D02*
X103720000Y-128825000D01*
X103405000Y-134065000D02*
X103405000Y-128825000D01*
X105830000Y-134065000D02*
X106145000Y-134065000D01*
%TO.C,C2*%
X102132000Y-113507112D02*
X103661000Y-113507112D01*
X102132000Y-112146112D02*
X103127000Y-112146112D01*
X102132000Y-112186112D02*
X103157000Y-112186112D01*
X102132000Y-111906112D02*
X102918000Y-111906112D01*
X98763000Y-112626112D02*
X100052000Y-112626112D01*
X102132000Y-112466112D02*
X103339000Y-112466112D01*
X102132000Y-113026112D02*
X103572000Y-113026112D01*
X98572000Y-113187112D02*
X100052000Y-113187112D01*
X98531000Y-113427112D02*
X100052000Y-113427112D01*
X102132000Y-113267112D02*
X103628000Y-113267112D01*
X102132000Y-112986112D02*
X103560000Y-112986112D01*
X102132000Y-112586112D02*
X103402000Y-112586112D01*
X99266000Y-111906112D02*
X100052000Y-111906112D01*
X98514000Y-113627112D02*
X103670000Y-113627112D01*
X99649000Y-111586112D02*
X100052000Y-111586112D01*
X102132000Y-112346112D02*
X103267000Y-112346112D01*
X102132000Y-112386112D02*
X103292000Y-112386112D01*
X100808000Y-111146112D02*
X101376000Y-111146112D01*
X102132000Y-111586112D02*
X102535000Y-111586112D01*
X102132000Y-113467112D02*
X103657000Y-113467112D01*
X102132000Y-112266112D02*
X103214000Y-112266112D01*
X102132000Y-111826112D02*
X102835000Y-111826112D01*
X98802000Y-112546112D02*
X100052000Y-112546112D01*
X99709000Y-111546112D02*
X100052000Y-111546112D01*
X98664000Y-112866112D02*
X100052000Y-112866112D01*
X98516000Y-113587112D02*
X103668000Y-113587112D01*
X98549000Y-113307112D02*
X100052000Y-113307112D01*
X102132000Y-112626112D02*
X103421000Y-112626112D01*
X100081000Y-111346112D02*
X102103000Y-111346112D01*
X99367000Y-116301887D02*
X99867000Y-116301887D01*
X102132000Y-112866112D02*
X103520000Y-112866112D01*
X98845000Y-112466112D02*
X100052000Y-112466112D01*
X102132000Y-111946112D02*
X102956000Y-111946112D01*
X99121000Y-112066112D02*
X100052000Y-112066112D01*
X102132000Y-113227112D02*
X103620000Y-113227112D01*
X98637000Y-112946112D02*
X100052000Y-112946112D01*
X102132000Y-111786112D02*
X102791000Y-111786112D01*
X99773000Y-111506112D02*
X100052000Y-111506112D01*
X102132000Y-112706112D02*
X103457000Y-112706112D01*
X98519000Y-113547112D02*
X103665000Y-113547112D01*
X102132000Y-112546112D02*
X103382000Y-112546112D01*
X98970000Y-112266112D02*
X100052000Y-112266112D01*
X99393000Y-111786112D02*
X100052000Y-111786112D01*
X102132000Y-112746112D02*
X103474000Y-112746112D01*
X98710000Y-112746112D02*
X100052000Y-112746112D01*
X99191000Y-111986112D02*
X100052000Y-111986112D01*
X98556000Y-113267112D02*
X100052000Y-113267112D01*
X102132000Y-113427112D02*
X103653000Y-113427112D01*
X98727000Y-112706112D02*
X100052000Y-112706112D01*
X99538000Y-111666112D02*
X100052000Y-111666112D01*
X102132000Y-112426112D02*
X103316000Y-112426112D01*
X99994000Y-111386112D02*
X102190000Y-111386112D01*
X98527000Y-113467112D02*
X100052000Y-113467112D01*
X98917000Y-112346112D02*
X100052000Y-112346112D01*
X98678000Y-112826112D02*
X100052000Y-112826112D01*
X102132000Y-111546112D02*
X102475000Y-111546112D01*
X99617000Y-116551887D02*
X99617000Y-116051887D01*
X102132000Y-112306112D02*
X103241000Y-112306112D01*
X98694000Y-112786112D02*
X100052000Y-112786112D01*
X102132000Y-111626112D02*
X102592000Y-111626112D01*
X98782000Y-112586112D02*
X100052000Y-112586112D01*
X102132000Y-113307112D02*
X103635000Y-113307112D01*
X102132000Y-112666112D02*
X103440000Y-112666112D01*
X102132000Y-112026112D02*
X103029000Y-112026112D01*
X102132000Y-113147112D02*
X103603000Y-113147112D01*
X102132000Y-111986112D02*
X102993000Y-111986112D01*
X98536000Y-113387112D02*
X100052000Y-113387112D01*
X102132000Y-111866112D02*
X102877000Y-111866112D01*
X99057000Y-112146112D02*
X100052000Y-112146112D01*
X98523000Y-113507112D02*
X100052000Y-113507112D01*
X98650000Y-112906112D02*
X100052000Y-112906112D01*
X102132000Y-113387112D02*
X103648000Y-113387112D01*
X98868000Y-112426112D02*
X100052000Y-112426112D01*
X102132000Y-111746112D02*
X102745000Y-111746112D01*
X99439000Y-111746112D02*
X100052000Y-111746112D01*
X98512000Y-113707112D02*
X103672000Y-113707112D01*
X102132000Y-111506112D02*
X102411000Y-111506112D01*
X99487000Y-111706112D02*
X100052000Y-111706112D01*
X98542000Y-113347112D02*
X100052000Y-113347112D01*
X98624000Y-112986112D02*
X100052000Y-112986112D01*
X100177000Y-111306112D02*
X102007000Y-111306112D01*
X98591000Y-113107112D02*
X100052000Y-113107112D01*
X99155000Y-112026112D02*
X100052000Y-112026112D01*
X102132000Y-112826112D02*
X103506000Y-112826112D01*
X98892000Y-112386112D02*
X100052000Y-112386112D01*
X102132000Y-112946112D02*
X103547000Y-112946112D01*
X102132000Y-112226112D02*
X103187000Y-112226112D01*
X100415000Y-111226112D02*
X101769000Y-111226112D01*
X98513000Y-113667112D02*
X103671000Y-113667112D01*
X102132000Y-111466112D02*
X102343000Y-111466112D01*
X102132000Y-113187112D02*
X103612000Y-113187112D01*
X99088000Y-112106112D02*
X100052000Y-112106112D01*
X98744000Y-112666112D02*
X100052000Y-112666112D01*
X102132000Y-113067112D02*
X103583000Y-113067112D01*
X102132000Y-113347112D02*
X103642000Y-113347112D01*
X102132000Y-112786112D02*
X103490000Y-112786112D01*
X98512000Y-113747112D02*
X103672000Y-113747112D01*
X102132000Y-111706112D02*
X102697000Y-111706112D01*
X98943000Y-112306112D02*
X100052000Y-112306112D01*
X98581000Y-113147112D02*
X100052000Y-113147112D01*
X99592000Y-111626112D02*
X100052000Y-111626112D01*
X102132000Y-113107112D02*
X103593000Y-113107112D01*
X100574000Y-111186112D02*
X101610000Y-111186112D01*
X99307000Y-111866112D02*
X100052000Y-111866112D01*
X100287000Y-111266112D02*
X101897000Y-111266112D01*
X98601000Y-113067112D02*
X100052000Y-113067112D01*
X99349000Y-111826112D02*
X100052000Y-111826112D01*
X102132000Y-112506112D02*
X103360000Y-112506112D01*
X98564000Y-113227112D02*
X100052000Y-113227112D01*
X98824000Y-112506112D02*
X100052000Y-112506112D01*
X99914000Y-111426112D02*
X102270000Y-111426112D01*
X102132000Y-112906112D02*
X103534000Y-112906112D01*
X99027000Y-112186112D02*
X100052000Y-112186112D01*
X102132000Y-112106112D02*
X103096000Y-112106112D01*
X98997000Y-112226112D02*
X100052000Y-112226112D01*
X99228000Y-111946112D02*
X100052000Y-111946112D01*
X99841000Y-111466112D02*
X100052000Y-111466112D01*
X98612000Y-113026112D02*
X100052000Y-113026112D01*
X102132000Y-111666112D02*
X102646000Y-111666112D01*
X102132000Y-112066112D02*
X103063000Y-112066112D01*
X103712000Y-113747112D02*
G75*
G03*
X103712000Y-113747112I-2620000J0D01*
G01*
D12*
%TO.C,J2*%
X81060000Y-129255000D02*
X81060000Y-135255000D01*
X95260000Y-129255000D02*
X81060000Y-129255000D01*
X80860000Y-138855000D02*
X77460000Y-138855000D01*
X77460000Y-131655000D02*
X81060000Y-131655000D01*
X81060000Y-141255000D02*
X95260000Y-141255000D01*
X81060000Y-135255000D02*
X81060000Y-141255000D01*
X95260000Y-141255000D02*
X95260000Y-129255000D01*
X77460000Y-138855000D02*
X77460000Y-131655000D01*
D11*
%TO.C,D4*%
X97398400Y-125997200D02*
X97398400Y-126153200D01*
X97398400Y-123681200D02*
X97398400Y-123837200D01*
X100630735Y-123838592D02*
G75*
G03*
X97398400Y-123681684I-1672335J-1078609D01*
G01*
X97917439Y-125997200D02*
G75*
G03*
X99999530Y-125997037I1040961J1080000D01*
G01*
X97398400Y-126152716D02*
G75*
G03*
X100630735Y-125995808I1560000J1235517D01*
G01*
X99999530Y-123837363D02*
G75*
G03*
X97917439Y-123837200I-1041130J-1079837D01*
G01*
%TO.C,R5*%
X130090000Y-137190000D02*
X130420000Y-137190000D01*
X127680000Y-137190000D02*
X127680000Y-143730000D01*
X127680000Y-143730000D02*
X128010000Y-143730000D01*
X130420000Y-143730000D02*
X130090000Y-143730000D01*
X130420000Y-137190000D02*
X130420000Y-143730000D01*
X128010000Y-137190000D02*
X127680000Y-137190000D01*
D12*
%TO.C,J5*%
X130840000Y-160110000D02*
X130840000Y-163510000D01*
X133240000Y-159910000D02*
X133240000Y-145710000D01*
X123640000Y-163510000D02*
X123640000Y-159910000D01*
X127240000Y-159910000D02*
X133240000Y-159910000D01*
X121240000Y-159910000D02*
X127240000Y-159910000D01*
X121240000Y-145710000D02*
X121240000Y-159910000D01*
X130840000Y-163510000D02*
X123640000Y-163510000D01*
X133240000Y-145710000D02*
X121240000Y-145710000D01*
D11*
%TO.C,R3*%
X107592800Y-112808000D02*
X107592800Y-119348000D01*
X105182800Y-112808000D02*
X104852800Y-112808000D01*
X104852800Y-119348000D02*
X105182800Y-119348000D01*
X107592800Y-119348000D02*
X107262800Y-119348000D01*
X104852800Y-112808000D02*
X104852800Y-119348000D01*
X107262800Y-112808000D02*
X107592800Y-112808000D01*
%TO.C,U1*%
X105995000Y-141960000D02*
X105995000Y-143610000D01*
X116335000Y-146100000D02*
X116335000Y-135820000D01*
X116275000Y-138310000D02*
X105995000Y-138310000D01*
X105995000Y-138310000D02*
X105995000Y-139960000D01*
X105935000Y-135820000D02*
X105935000Y-146100000D01*
X116335000Y-135820000D02*
X105935000Y-135820000D01*
X116275000Y-143610000D02*
X116275000Y-138310000D01*
X105935000Y-146100000D02*
X116335000Y-146100000D01*
X105995000Y-143610000D02*
X116275000Y-143610000D01*
X105995000Y-141960000D02*
G75*
G03*
X105995000Y-139960000I0J1000000D01*
G01*
%TO.C,RV1*%
X108555000Y-159392500D02*
X108555000Y-155792500D01*
X100205000Y-159392500D02*
X98455000Y-159392500D01*
X98455000Y-159392500D02*
X98455000Y-155842500D01*
D12*
X98599000Y-152114500D02*
X98599000Y-150336500D01*
D11*
X106805000Y-160692500D02*
X100205000Y-160692500D01*
X100205000Y-157992500D02*
X106805000Y-157992500D01*
X100205000Y-160692500D02*
X100205000Y-157992500D01*
X103505000Y-157992500D02*
X102555000Y-156992500D01*
D12*
X103425000Y-152114500D02*
X103425000Y-150336500D01*
D11*
X106805000Y-159392500D02*
X108555000Y-159392500D01*
X103505000Y-157942500D02*
X103505000Y-155592500D01*
D12*
X108505000Y-152114500D02*
X108505000Y-150336500D01*
D11*
X103455000Y-157992500D02*
X104455000Y-157042500D01*
X106805000Y-157992500D02*
X106805000Y-160692500D01*
%TO.C,R1*%
X102465000Y-137700000D02*
X102135000Y-137700000D01*
X104875000Y-144240000D02*
X104545000Y-144240000D01*
X104545000Y-137700000D02*
X104875000Y-137700000D01*
X102135000Y-144240000D02*
X102465000Y-144240000D01*
X102135000Y-137700000D02*
X102135000Y-144240000D01*
X104875000Y-137700000D02*
X104875000Y-144240000D01*
%TO.C,C8*%
X115944000Y-130402000D02*
X115944000Y-130087000D01*
X115944000Y-127977000D02*
X115944000Y-127662000D01*
X110704000Y-130402000D02*
X110704000Y-130087000D01*
X110704000Y-127977000D02*
X110704000Y-127662000D01*
X115944000Y-130402000D02*
X110704000Y-130402000D01*
X115944000Y-127662000D02*
X110704000Y-127662000D01*
%TO.C,C9*%
X124360000Y-137080000D02*
X124675000Y-137080000D01*
X124360000Y-142320000D02*
X124675000Y-142320000D01*
X126785000Y-137080000D02*
X127100000Y-137080000D01*
X126785000Y-142320000D02*
X127100000Y-142320000D01*
X127100000Y-142320000D02*
X127100000Y-137080000D01*
X124360000Y-142320000D02*
X124360000Y-137080000D01*
D12*
%TO.C,RV2*%
X137494000Y-120554500D02*
X137494000Y-122332500D01*
D11*
X135888000Y-111976500D02*
X135888000Y-114676500D01*
X132638000Y-114676500D02*
X131638000Y-115626500D01*
X129288000Y-113276500D02*
X127538000Y-113276500D01*
X129288000Y-114676500D02*
X129288000Y-111976500D01*
X135888000Y-113276500D02*
X137638000Y-113276500D01*
X132588000Y-114676500D02*
X133538000Y-115676500D01*
D12*
X127588000Y-120554500D02*
X127588000Y-122332500D01*
X132668000Y-120554500D02*
X132668000Y-122332500D01*
D11*
X137638000Y-113276500D02*
X137638000Y-116826500D01*
X127538000Y-113276500D02*
X127538000Y-116876500D01*
X135888000Y-114676500D02*
X129288000Y-114676500D01*
X129288000Y-111976500D02*
X135888000Y-111976500D01*
X132588000Y-114726500D02*
X132588000Y-117076500D01*
%TO.C,R8*%
X109320000Y-133445000D02*
X109320000Y-126905000D01*
X106580000Y-133445000D02*
X106580000Y-126905000D01*
X109320000Y-126905000D02*
X108990000Y-126905000D01*
X108990000Y-133445000D02*
X109320000Y-133445000D01*
X106910000Y-133445000D02*
X106580000Y-133445000D01*
X106580000Y-126905000D02*
X106910000Y-126905000D01*
%TO.C,C10*%
X110791000Y-134151000D02*
X110791000Y-134466000D01*
X116031000Y-131726000D02*
X116031000Y-132041000D01*
X110791000Y-131726000D02*
X116031000Y-131726000D01*
X110791000Y-134466000D02*
X116031000Y-134466000D01*
X116031000Y-134151000D02*
X116031000Y-134466000D01*
X110791000Y-131726000D02*
X110791000Y-132041000D01*
%TO.C,C11*%
X140696000Y-150146000D02*
X139216000Y-150146000D01*
X137136000Y-151867000D02*
X136925000Y-151867000D01*
X140113000Y-151307000D02*
X139216000Y-151307000D01*
X137136000Y-149866000D02*
X135611000Y-149866000D01*
X140423000Y-150867000D02*
X139216000Y-150867000D01*
X137136000Y-151347000D02*
X136275000Y-151347000D01*
X137136000Y-151267000D02*
X136205000Y-151267000D01*
X137136000Y-150066000D02*
X135640000Y-150066000D01*
X140271000Y-151107000D02*
X139216000Y-151107000D01*
X140574000Y-150547000D02*
X139216000Y-150547000D01*
X137136000Y-150467000D02*
X135748000Y-150467000D01*
X139187000Y-151987000D02*
X137165000Y-151987000D01*
X138981000Y-152067000D02*
X137371000Y-152067000D01*
X140749000Y-149786000D02*
X135603000Y-149786000D01*
X137136000Y-150827000D02*
X135908000Y-150827000D01*
X140505000Y-150707000D02*
X139216000Y-150707000D01*
X140756000Y-149626000D02*
X135596000Y-149626000D01*
X140002000Y-151427000D02*
X139216000Y-151427000D01*
X140712000Y-150066000D02*
X139216000Y-150066000D01*
X140677000Y-150226000D02*
X139216000Y-150226000D01*
X140644000Y-150347000D02*
X139216000Y-150347000D01*
X140376000Y-150947000D02*
X139216000Y-150947000D01*
X140524000Y-150667000D02*
X139216000Y-150667000D01*
X140590000Y-150507000D02*
X139216000Y-150507000D01*
X137136000Y-151707000D02*
X136676000Y-151707000D01*
X140687000Y-150186000D02*
X139216000Y-150186000D01*
X139919000Y-151507000D02*
X139216000Y-151507000D01*
X137136000Y-149826000D02*
X135607000Y-149826000D01*
X137136000Y-150987000D02*
X136001000Y-150987000D01*
X140180000Y-151227000D02*
X139216000Y-151227000D01*
X139730000Y-151667000D02*
X139216000Y-151667000D01*
X139875000Y-151547000D02*
X139216000Y-151547000D01*
X137136000Y-151147000D02*
X136111000Y-151147000D01*
X137136000Y-150266000D02*
X135685000Y-150266000D01*
X140298000Y-151067000D02*
X139216000Y-151067000D01*
X137136000Y-150307000D02*
X135696000Y-150307000D01*
X137136000Y-151667000D02*
X136622000Y-151667000D01*
X140741000Y-149866000D02*
X139216000Y-149866000D01*
X139829000Y-151587000D02*
X139216000Y-151587000D01*
X137136000Y-151827000D02*
X136857000Y-151827000D01*
X140667000Y-150266000D02*
X139216000Y-150266000D01*
X140466000Y-150787000D02*
X139216000Y-150787000D01*
X137136000Y-151427000D02*
X136350000Y-151427000D01*
X140241000Y-151147000D02*
X139216000Y-151147000D01*
X140351000Y-150987000D02*
X139216000Y-150987000D01*
X137136000Y-150226000D02*
X135675000Y-150226000D01*
X137136000Y-150547000D02*
X135778000Y-150547000D01*
X140444000Y-150827000D02*
X139216000Y-150827000D01*
X137136000Y-150146000D02*
X135656000Y-150146000D01*
X140077000Y-151347000D02*
X139216000Y-151347000D01*
X137136000Y-151507000D02*
X136433000Y-151507000D01*
X140754000Y-149706000D02*
X135598000Y-149706000D01*
X137136000Y-150106000D02*
X135648000Y-150106000D01*
X139274000Y-151947000D02*
X137078000Y-151947000D01*
X137136000Y-150907000D02*
X135952000Y-150907000D01*
X138460000Y-152187000D02*
X137892000Y-152187000D01*
X139091000Y-152027000D02*
X137261000Y-152027000D01*
X140211000Y-151187000D02*
X139216000Y-151187000D01*
X137136000Y-150507000D02*
X135762000Y-150507000D01*
X137136000Y-151587000D02*
X136523000Y-151587000D01*
X140732000Y-149946000D02*
X139216000Y-149946000D01*
X139427000Y-151867000D02*
X139216000Y-151867000D01*
X139559000Y-151787000D02*
X139216000Y-151787000D01*
X137136000Y-150747000D02*
X135866000Y-150747000D01*
X140745000Y-149826000D02*
X139216000Y-149826000D01*
X137136000Y-150787000D02*
X135886000Y-150787000D01*
X140752000Y-149746000D02*
X135600000Y-149746000D01*
X137136000Y-151467000D02*
X136391000Y-151467000D01*
X137136000Y-149946000D02*
X135620000Y-149946000D01*
X137136000Y-150627000D02*
X135811000Y-150627000D01*
X137136000Y-150707000D02*
X135847000Y-150707000D01*
X140631000Y-150387000D02*
X139216000Y-150387000D01*
X139781000Y-151627000D02*
X139216000Y-151627000D01*
X140755000Y-149666000D02*
X135597000Y-149666000D01*
X137136000Y-151187000D02*
X136141000Y-151187000D01*
X140400000Y-150907000D02*
X139216000Y-150907000D01*
X140656000Y-150307000D02*
X139216000Y-150307000D01*
X137136000Y-151307000D02*
X136239000Y-151307000D01*
X139901000Y-147031225D02*
X139401000Y-147031225D01*
X140726000Y-149986000D02*
X139216000Y-149986000D01*
X140756000Y-149586000D02*
X135596000Y-149586000D01*
X139676000Y-151707000D02*
X139216000Y-151707000D01*
X137136000Y-150347000D02*
X135708000Y-150347000D01*
X140558000Y-150587000D02*
X139216000Y-150587000D01*
X137136000Y-150587000D02*
X135794000Y-150587000D01*
X137136000Y-151627000D02*
X136571000Y-151627000D01*
X140737000Y-149906000D02*
X139216000Y-149906000D01*
X137136000Y-149906000D02*
X135615000Y-149906000D01*
X137136000Y-151107000D02*
X136081000Y-151107000D01*
X137136000Y-150947000D02*
X135976000Y-150947000D01*
X138853000Y-152107000D02*
X137499000Y-152107000D01*
X137136000Y-150387000D02*
X135721000Y-150387000D01*
X137136000Y-151227000D02*
X136172000Y-151227000D01*
X140541000Y-150627000D02*
X139216000Y-150627000D01*
X137136000Y-150867000D02*
X135929000Y-150867000D01*
X138694000Y-152147000D02*
X137658000Y-152147000D01*
X140704000Y-150106000D02*
X139216000Y-150106000D01*
X137136000Y-151547000D02*
X136477000Y-151547000D01*
X140719000Y-150026000D02*
X139216000Y-150026000D01*
X137136000Y-150186000D02*
X135665000Y-150186000D01*
X140040000Y-151387000D02*
X139216000Y-151387000D01*
X139619000Y-151747000D02*
X139216000Y-151747000D01*
X140618000Y-150427000D02*
X139216000Y-150427000D01*
X137136000Y-151747000D02*
X136733000Y-151747000D01*
X140486000Y-150747000D02*
X139216000Y-150747000D01*
X137136000Y-150427000D02*
X135734000Y-150427000D01*
X137136000Y-150667000D02*
X135828000Y-150667000D01*
X139495000Y-151827000D02*
X139216000Y-151827000D01*
X137136000Y-151387000D02*
X136312000Y-151387000D01*
X139651000Y-146781225D02*
X139651000Y-147281225D01*
X140147000Y-151267000D02*
X139216000Y-151267000D01*
X139961000Y-151467000D02*
X139216000Y-151467000D01*
X137136000Y-150026000D02*
X135633000Y-150026000D01*
X137136000Y-151067000D02*
X136054000Y-151067000D01*
X139354000Y-151907000D02*
X136998000Y-151907000D01*
X137136000Y-149986000D02*
X135626000Y-149986000D01*
X140604000Y-150467000D02*
X139216000Y-150467000D01*
X140325000Y-151027000D02*
X139216000Y-151027000D01*
X137136000Y-151027000D02*
X136027000Y-151027000D01*
X137136000Y-151787000D02*
X136793000Y-151787000D01*
X140796000Y-149586000D02*
G75*
G03*
X140796000Y-149586000I-2620000J0D01*
G01*
%TO.C,J8*%
X80500833Y-112000000D02*
G75*
G03*
X80500833Y-112000000I-1500833J0D01*
G01*
%TO.C,J7*%
X144500833Y-161000000D02*
G75*
G03*
X144500833Y-161000000I-1500833J0D01*
G01*
%TO.C,J3*%
X91140000Y-117432500D02*
X92190000Y-117432500D01*
X77290000Y-117632500D02*
X91990000Y-117632500D01*
X91990000Y-117632500D02*
X91990000Y-120232500D01*
X91990000Y-126832500D02*
X90090000Y-126832500D01*
X92190000Y-118482500D02*
X92190000Y-117432500D01*
X91990000Y-124132500D02*
X91990000Y-126832500D01*
X86090000Y-126832500D02*
X77290000Y-126832500D01*
X77290000Y-126832500D02*
X77290000Y-117632500D01*
%TO.C,R4*%
X135790000Y-133826000D02*
X135790000Y-127286000D01*
X135790000Y-127286000D02*
X136120000Y-127286000D01*
X138530000Y-133826000D02*
X138530000Y-127286000D01*
X136120000Y-133826000D02*
X135790000Y-133826000D01*
X138530000Y-127286000D02*
X138200000Y-127286000D01*
X138200000Y-133826000D02*
X138530000Y-133826000D01*
%TO.C,D1*%
X93910000Y-118290000D02*
X93780000Y-118290000D01*
X93780000Y-112850000D02*
X93910000Y-112850000D01*
X93780000Y-117510000D02*
X96720000Y-117510000D01*
X96720000Y-112850000D02*
X96590000Y-112850000D01*
X96720000Y-118290000D02*
X96720000Y-112850000D01*
X96590000Y-118290000D02*
X96720000Y-118290000D01*
X93780000Y-118290000D02*
X93780000Y-112850000D01*
X93780000Y-117390000D02*
X96720000Y-117390000D01*
X93780000Y-117270000D02*
X96720000Y-117270000D01*
%TO.C,C5*%
X134720000Y-131866000D02*
X134720000Y-126626000D01*
X134405000Y-131866000D02*
X134720000Y-131866000D01*
X134405000Y-126626000D02*
X134720000Y-126626000D01*
X131980000Y-131866000D02*
X131980000Y-126626000D01*
X131980000Y-126626000D02*
X132295000Y-126626000D01*
X131980000Y-131866000D02*
X132295000Y-131866000D01*
%TO.C,R2*%
X117705000Y-137700000D02*
X117375000Y-137700000D01*
X120115000Y-137700000D02*
X120115000Y-144240000D01*
X120115000Y-144240000D02*
X119785000Y-144240000D01*
X117375000Y-137700000D02*
X117375000Y-144240000D01*
X119785000Y-137700000D02*
X120115000Y-137700000D01*
X117375000Y-144240000D02*
X117705000Y-144240000D01*
%TO.C,J1*%
X87630000Y-144145000D02*
X87630000Y-154305000D01*
X87630000Y-154305000D02*
X95250000Y-154305000D01*
X88900000Y-154305000D02*
X88900000Y-144145000D01*
X95250000Y-154305000D02*
X95250000Y-144145000D01*
X95250000Y-144145000D02*
X87630000Y-144145000D01*
%TO.C,J6*%
X144500833Y-112000000D02*
G75*
G03*
X144500833Y-112000000I-1500833J0D01*
G01*
%TO.C,C6*%
X125437000Y-132160000D02*
X125122000Y-132160000D01*
X125122000Y-126920000D02*
X125122000Y-132160000D01*
X127862000Y-126920000D02*
X127547000Y-126920000D01*
X127862000Y-132160000D02*
X127547000Y-132160000D01*
X127862000Y-126920000D02*
X127862000Y-132160000D01*
X125437000Y-126920000D02*
X125122000Y-126920000D01*
%TD*%
M02*
