M48
; DRILL file {KiCad (6.0.2)} date Tue Apr 12 17:28:20 2022
; FORMAT={-:-/ absolute / inch / decimal}
; #@! TF.CreationDate,2022-04-12T17:28:20-05:00
; #@! TF.GenerationSoftware,Kicad,Pcbnew,(6.0.2)
; #@! TF.FileFunction,Plated,1,2,PTH
FMAT,2
INCH
; #@! TA.AperFunction,Plated,PTH,ComponentDrill
T1C0.0295
; #@! TA.AperFunction,Plated,PTH,ComponentDrill
T2C0.0315
; #@! TA.AperFunction,Plated,PTH,ComponentDrill
T3C0.0354
; #@! TA.AperFunction,Plated,PTH,ComponentDrill
T4C0.0394
; #@! TA.AperFunction,Plated,PTH,ComponentDrill
T5C0.0433
; #@! TA.AperFunction,Plated,PTH,ComponentDrill
T6C0.0472
; #@! TA.AperFunction,Plated,PTH,ComponentDrill
T7C0.0598
; #@! TA.AperFunction,Plated,PTH,ComponentDrill
T8C0.1181
%
G90
G05
T2
X3.4402Y-6.3888
X3.4823Y-6.2638
X3.6791Y-6.2638
X3.7402Y-6.3888
X3.8266Y-5.674
X3.925Y-5.674
X3.9567Y-4.7171
X3.9567Y-5.0171
X3.9734Y-4.4715
X3.9734Y-4.5699
X4.075Y-5.4
X4.075Y-5.7
X4.125Y-5.0766
X4.125Y-5.2734
X4.1486Y-4.7628
X4.1486Y-4.8612
X4.2254Y-5.3996
X4.2254Y-5.6996
X4.25Y-4.975
X4.25Y-5.275
X4.3254Y-5.3996
X4.3254Y-5.6996
X4.3631Y-5.08
X4.3666Y-5.24
X4.4254Y-5.3996
X4.4254Y-5.6996
X4.5254Y-5.3996
X4.5254Y-5.6996
X4.56Y-5.08
X4.5634Y-5.24
X4.67Y-5.0
X4.67Y-5.3
X4.675Y-5.4
X4.675Y-5.7
X4.82Y-5.4016
X4.82Y-5.5984
X4.95Y-5.4016
X4.95Y-5.5984
X4.98Y-5.0016
X4.98Y-5.1984
X5.0807Y-5.3799
X5.0807Y-5.6799
X5.1181Y-4.99
X5.1181Y-5.29
X5.25Y-4.99
X5.25Y-5.1869
X5.33Y-6.07
X5.33Y-6.37
X5.4Y-4.99
X5.4Y-5.29
X5.44Y-5.84
X5.44Y-5.9384
T3
X3.8041Y-5.1722
X3.8051Y-5.3583
X3.9041Y-5.1722
X3.9051Y-5.3583
T5
X3.8278Y-4.7138
X3.8278Y-5.0138
T6
X3.8781Y-5.8619
X3.8781Y-6.0588
X4.075Y-5.8619
X4.075Y-6.0588
X4.2719Y-5.8619
X4.2719Y-6.0588
X4.3431Y-4.6762
X4.3431Y-4.8731
X4.54Y-4.6762
X4.54Y-4.8731
X4.7369Y-4.6762
X4.7369Y-4.8731
X5.0231Y-4.6762
X5.0231Y-4.8731
X5.22Y-4.6762
X5.22Y-4.8731
X5.4169Y-4.6762
X5.4169Y-4.8731
T7
X3.4295Y-4.564
X3.5787Y-5.8937
X3.5787Y-6.0937
X3.6295Y-4.564
X5.405Y-5.45
X5.405Y-5.65
T8
X3.1102Y-4.4094
X3.1102Y-6.3386
X5.6299Y-4.4094
X5.6299Y-6.3386
T1
G00X3.2183Y-5.4848
M15
G01X3.2183Y-5.4552
M16
G05
G00X3.3767Y-5.659
M15
G01X3.4063Y-5.659
M16
G05
G00X3.5145Y-5.2653
M15
G01X3.5441Y-5.2653
M16
G05
G00X4.8047Y-5.9325
M15
G01X4.8047Y-5.903
M16
G05
G00X5.0242Y-6.2287
M15
G01X4.9947Y-6.2287
M16
G05
G00X5.1984Y-6.0703
M15
G01X5.1984Y-6.0407
M16
G05
T4
G00X3.3848Y-4.8917
M15
G01X3.3848Y-4.9705
M16
G05
G00X3.4801Y-5.3676
M15
G01X3.4998Y-5.3676
M16
G05
G00X3.4636Y-5.1161
M15
G01X3.5423Y-5.1161
M16
G05
G00X3.6211Y-4.8917
M15
G01X3.6211Y-4.9705
M16
G05
G00X3.6631Y-5.6491
M15
G01X3.6631Y-5.6294
M16
G05
G00X4.9071Y-5.9669
M15
G01X4.9071Y-5.9472
M16
G05
G00X5.1886Y-5.7839
M15
G01X5.1689Y-5.7839
M16
G05
T0
M30
