%TF.GenerationSoftware,KiCad,Pcbnew,(6.0.2)*%
%TF.CreationDate,2022-03-01T10:48:04-06:00*%
%TF.ProjectId,PhonoJFET,50686f6e-6f4a-4464-9554-2e6b69636164,rev?*%
%TF.SameCoordinates,Original*%
%TF.FileFunction,Copper,L2,Bot*%
%TF.FilePolarity,Positive*%
%FSLAX46Y46*%
G04 Gerber Fmt 4.6, Leading zero omitted, Abs format (unit mm)*
G04 Created by KiCad (PCBNEW (6.0.2)) date 2022-03-01 10:48:04*
%MOMM*%
%LPD*%
G01*
G04 APERTURE LIST*
G04 Aperture macros list*
%AMRoundRect*
0 Rectangle with rounded corners*
0 $1 Rounding radius*
0 $2 $3 $4 $5 $6 $7 $8 $9 X,Y pos of 4 corners*
0 Add a 4 corners polygon primitive as box body*
4,1,4,$2,$3,$4,$5,$6,$7,$8,$9,$2,$3,0*
0 Add four circle primitives for the rounded corners*
1,1,$1+$1,$2,$3*
1,1,$1+$1,$4,$5*
1,1,$1+$1,$6,$7*
1,1,$1+$1,$8,$9*
0 Add four rect primitives between the rounded corners*
20,1,$1+$1,$2,$3,$4,$5,0*
20,1,$1+$1,$4,$5,$6,$7,0*
20,1,$1+$1,$6,$7,$8,$9,0*
20,1,$1+$1,$8,$9,$2,$3,0*%
G04 Aperture macros list end*
%TA.AperFunction,ComponentPad*%
%ADD10R,3.000000X3.000000*%
%TD*%
%TA.AperFunction,ComponentPad*%
%ADD11C,3.000000*%
%TD*%
%TA.AperFunction,ComponentPad*%
%ADD12O,1.600000X1.600000*%
%TD*%
%TA.AperFunction,ComponentPad*%
%ADD13C,1.600000*%
%TD*%
%TA.AperFunction,ComponentPad*%
%ADD14R,1.600000X1.600000*%
%TD*%
%TA.AperFunction,ComponentPad*%
%ADD15C,3.500000*%
%TD*%
%TA.AperFunction,ComponentPad*%
%ADD16R,1.800000X1.800000*%
%TD*%
%TA.AperFunction,ComponentPad*%
%ADD17C,1.800000*%
%TD*%
%TA.AperFunction,ComponentPad*%
%ADD18C,2.500000*%
%TD*%
%TA.AperFunction,ComponentPad*%
%ADD19O,2.000000X1.000000*%
%TD*%
%TA.AperFunction,ComponentPad*%
%ADD20O,1.000000X2.000000*%
%TD*%
%TA.AperFunction,ComponentPad*%
%ADD21O,1.500000X2.000000*%
%TD*%
%TA.AperFunction,ComponentPad*%
%ADD22O,2.000000X1.500000*%
%TD*%
%TA.AperFunction,ComponentPad*%
%ADD23R,3.500000X3.500000*%
%TD*%
%TA.AperFunction,ComponentPad*%
%ADD24RoundRect,0.750000X-0.750000X-1.000000X0.750000X-1.000000X0.750000X1.000000X-0.750000X1.000000X0*%
%TD*%
%TA.AperFunction,ComponentPad*%
%ADD25RoundRect,0.875000X-0.875000X-0.875000X0.875000X-0.875000X0.875000X0.875000X-0.875000X0.875000X0*%
%TD*%
%TA.AperFunction,ComponentPad*%
%ADD26R,2.200000X2.200000*%
%TD*%
%TA.AperFunction,ComponentPad*%
%ADD27O,2.200000X2.200000*%
%TD*%
%TA.AperFunction,Conductor*%
%ADD28C,1.000000*%
%TD*%
G04 APERTURE END LIST*
D10*
%TO.P,J4,1,Pin_1*%
%TO.N,Net-(C11-Pad2)*%
X137287000Y-138430000D03*
D11*
%TO.P,J4,2,Pin_2*%
%TO.N,GND*%
X137287000Y-143510000D03*
%TD*%
D12*
%TO.P,R10,2*%
%TO.N,Net-(C11-Pad2)*%
X135382000Y-154178000D03*
D13*
%TO.P,R10,1*%
%TO.N,GND*%
X135382000Y-161798000D03*
%TD*%
%TO.P,R9,1*%
%TO.N,Net-(J1-Pad1)*%
X93726000Y-157226000D03*
D12*
%TO.P,R9,2*%
%TO.N,GND*%
X86106000Y-157226000D03*
%TD*%
D14*
%TO.P,C1,1*%
%TO.N,Net-(R1-Pad2)*%
X99695000Y-144119600D03*
D13*
%TO.P,C1,2*%
%TO.N,Net-(J1-Pad1)*%
X97195000Y-144119600D03*
%TD*%
D15*
%TO.P,J9,1,Pin_1*%
%TO.N,unconnected-(J9-Pad1)*%
X79000000Y-161000000D03*
%TD*%
D16*
%TO.P,D2,1,K*%
%TO.N,Net-(D2-Pad1)*%
X97683400Y-134010400D03*
D17*
%TO.P,D2,2,A*%
%TO.N,+6V*%
X100223400Y-134010400D03*
%TD*%
D14*
%TO.P,C3,1*%
%TO.N,+6V*%
X101092000Y-120864000D03*
D13*
%TO.P,C3,2*%
%TO.N,GND*%
X101092000Y-118364000D03*
%TD*%
D18*
%TO.P,RV3,1,1*%
%TO.N,Net-(C9-Pad2)*%
X110316000Y-118776500D03*
%TO.P,RV3,2,2*%
%TO.N,Net-(R7-Pad2)*%
X115316000Y-118776500D03*
%TO.P,RV3,3,3*%
%TO.N,Net-(C8-Pad1)*%
X120316000Y-118776500D03*
%TO.P,RV3,4*%
%TO.N,N/C*%
X110316000Y-123776500D03*
%TO.P,RV3,5*%
X115316000Y-123776500D03*
%TO.P,RV3,6*%
X120316000Y-123776500D03*
%TD*%
D13*
%TO.P,C4,1*%
%TO.N,+6V*%
X122428000Y-137200000D03*
%TO.P,C4,2*%
%TO.N,GND*%
X122428000Y-142200000D03*
%TD*%
D16*
%TO.P,D3,1,K*%
%TO.N,Net-(D3-Pad1)*%
X97688400Y-129438400D03*
D17*
%TO.P,D3,2,A*%
%TO.N,Net-(D2-Pad1)*%
X100228400Y-129438400D03*
%TD*%
D13*
%TO.P,R7,1*%
%TO.N,Net-(C10-Pad2)*%
X118618000Y-134620000D03*
D12*
%TO.P,R7,2*%
%TO.N,Net-(R7-Pad2)*%
X118618000Y-127000000D03*
%TD*%
D13*
%TO.P,R6,1*%
%TO.N,Net-(C5-Pad2)*%
X130000000Y-126746000D03*
D12*
%TO.P,R6,2*%
%TO.N,Net-(C10-Pad2)*%
X130000000Y-134366000D03*
%TD*%
D13*
%TO.P,C7,1*%
%TO.N,Net-(C2-Pad1)*%
X104775000Y-133945000D03*
%TO.P,C7,2*%
%TO.N,GND*%
X104775000Y-128945000D03*
%TD*%
D14*
%TO.P,C2,1*%
%TO.N,Net-(C2-Pad1)*%
X101092000Y-114997112D03*
D13*
%TO.P,C2,2*%
%TO.N,GND*%
X101092000Y-112497112D03*
%TD*%
D19*
%TO.P,J2,1,Pin_1*%
%TO.N,Net-(J1-Pad1)*%
X87160000Y-140055000D03*
%TO.P,J2,2,Pin_2*%
%TO.N,unconnected-(J2-Pad2)*%
X90660000Y-130055000D03*
D20*
%TO.P,J2,3,Pin_3*%
%TO.N,GND*%
X82760000Y-135255000D03*
D21*
%TO.P,J2,4*%
%TO.N,N/C*%
X94060000Y-139555000D03*
D22*
%TO.P,J2,5*%
X89660000Y-132655000D03*
%TD*%
D16*
%TO.P,D4,1,K*%
%TO.N,GND*%
X97688400Y-124917200D03*
D17*
%TO.P,D4,2,A*%
%TO.N,Net-(D3-Pad1)*%
X100228400Y-124917200D03*
%TD*%
D13*
%TO.P,R5,1*%
%TO.N,Net-(C6-Pad1)*%
X129050000Y-136650000D03*
D12*
%TO.P,R5,2*%
%TO.N,Net-(C9-Pad1)*%
X129050000Y-144270000D03*
%TD*%
D20*
%TO.P,J5,1,Pin_1*%
%TO.N,Net-(C11-Pad2)*%
X132040000Y-153810000D03*
%TO.P,J5,2,Pin_2*%
%TO.N,unconnected-(J5-Pad2)*%
X122040000Y-150310000D03*
D19*
%TO.P,J5,3,Pin_3*%
%TO.N,GND*%
X127240000Y-158210000D03*
D22*
%TO.P,J5,4*%
%TO.N,N/C*%
X131540000Y-146910000D03*
D21*
%TO.P,J5,5*%
X124640000Y-151310000D03*
%TD*%
D13*
%TO.P,R3,1*%
%TO.N,Net-(C2-Pad1)*%
X106222800Y-112268000D03*
D12*
%TO.P,R3,2*%
%TO.N,+6V*%
X106222800Y-119888000D03*
%TD*%
D14*
%TO.P,U1,1*%
%TO.N,Net-(C9-Pad1)*%
X107325000Y-144770000D03*
D12*
%TO.P,U1,2,-*%
%TO.N,Net-(R2-Pad2)*%
X109865000Y-144770000D03*
%TO.P,U1,3,+*%
%TO.N,Net-(R1-Pad2)*%
X112405000Y-144770000D03*
%TO.P,U1,4,V-*%
%TO.N,GND*%
X114945000Y-144770000D03*
%TO.P,U1,5,+*%
%TO.N,+6V*%
X114945000Y-137150000D03*
%TO.P,U1,6,-*%
%TO.N,Net-(C10-Pad2)*%
X112405000Y-137150000D03*
%TO.P,U1,7*%
%TO.N,Net-(C10-Pad1)*%
X109865000Y-137150000D03*
%TO.P,U1,8,V+*%
%TO.N,Net-(C2-Pad1)*%
X107325000Y-137150000D03*
%TD*%
D18*
%TO.P,RV1,1,1*%
%TO.N,Net-(R2-Pad2)*%
X108505000Y-153892500D03*
%TO.P,RV1,2,2*%
%TO.N,Net-(C9-Pad1)*%
X103505000Y-153892500D03*
%TO.P,RV1,3,3*%
X98505000Y-153892500D03*
%TO.P,RV1,4*%
%TO.N,N/C*%
X108505000Y-148892500D03*
%TO.P,RV1,5*%
X103505000Y-148892500D03*
%TO.P,RV1,6*%
X98505000Y-148892500D03*
%TD*%
D13*
%TO.P,R1,1*%
%TO.N,+6V*%
X103505000Y-137160000D03*
D12*
%TO.P,R1,2*%
%TO.N,Net-(R1-Pad2)*%
X103505000Y-144780000D03*
%TD*%
D13*
%TO.P,C8,1*%
%TO.N,Net-(C8-Pad1)*%
X115824000Y-129032000D03*
%TO.P,C8,2*%
%TO.N,Net-(C10-Pad1)*%
X110824000Y-129032000D03*
%TD*%
%TO.P,C9,1*%
%TO.N,Net-(C9-Pad1)*%
X125730000Y-142200000D03*
%TO.P,C9,2*%
%TO.N,Net-(C9-Pad2)*%
X125730000Y-137200000D03*
%TD*%
D18*
%TO.P,RV2,1,1*%
%TO.N,Net-(C6-Pad1)*%
X127588000Y-118776500D03*
%TO.P,RV2,2,2*%
%TO.N,Net-(C5-Pad2)*%
X132588000Y-118776500D03*
%TO.P,RV2,3,3*%
%TO.N,Net-(C5-Pad1)*%
X137588000Y-118776500D03*
%TO.P,RV2,4*%
%TO.N,N/C*%
X127588000Y-123776500D03*
%TO.P,RV2,5*%
X132588000Y-123776500D03*
%TO.P,RV2,6*%
X137588000Y-123776500D03*
%TD*%
D13*
%TO.P,R8,1*%
%TO.N,Net-(C10-Pad1)*%
X107950000Y-133985000D03*
D12*
%TO.P,R8,2*%
%TO.N,+6V*%
X107950000Y-126365000D03*
%TD*%
D13*
%TO.P,C10,1*%
%TO.N,Net-(C10-Pad1)*%
X110911000Y-133096000D03*
%TO.P,C10,2*%
%TO.N,Net-(C10-Pad2)*%
X115911000Y-133096000D03*
%TD*%
D14*
%TO.P,C11,1*%
%TO.N,Net-(C10-Pad1)*%
X138176000Y-148336000D03*
D13*
%TO.P,C11,2*%
%TO.N,Net-(C11-Pad2)*%
X138176000Y-150836000D03*
%TD*%
D15*
%TO.P,J8,1,Pin_1*%
%TO.N,unconnected-(J8-Pad1)*%
X79000000Y-112000000D03*
%TD*%
%TO.P,J7,1,Pin_1*%
%TO.N,unconnected-(J7-Pad1)*%
X143000000Y-161000000D03*
%TD*%
D23*
%TO.P,J3,1*%
%TO.N,+12V*%
X91090000Y-122232500D03*
D24*
%TO.P,J3,2*%
%TO.N,GND*%
X85090000Y-122232500D03*
D25*
%TO.P,J3,3*%
%TO.N,unconnected-(J3-Pad3)*%
X88090000Y-126932500D03*
%TD*%
D13*
%TO.P,R4,1*%
%TO.N,Net-(C10-Pad1)*%
X137160000Y-134366000D03*
D12*
%TO.P,R4,2*%
%TO.N,Net-(C5-Pad1)*%
X137160000Y-126746000D03*
%TD*%
D26*
%TO.P,D1,1,K*%
%TO.N,Net-(C2-Pad1)*%
X95250000Y-119380000D03*
D27*
%TO.P,D1,2,A*%
%TO.N,+12V*%
X95250000Y-111760000D03*
%TD*%
D13*
%TO.P,C5,1*%
%TO.N,Net-(C5-Pad1)*%
X133350000Y-131746000D03*
%TO.P,C5,2*%
%TO.N,Net-(C5-Pad2)*%
X133350000Y-126746000D03*
%TD*%
%TO.P,R2,1*%
%TO.N,+6V*%
X118745000Y-137160000D03*
D12*
%TO.P,R2,2*%
%TO.N,Net-(R2-Pad2)*%
X118745000Y-144780000D03*
%TD*%
D10*
%TO.P,J1,1,Pin_1*%
%TO.N,Net-(J1-Pad1)*%
X91440000Y-146685000D03*
D11*
%TO.P,J1,2,Pin_2*%
%TO.N,GND*%
X91440000Y-151765000D03*
%TD*%
D15*
%TO.P,J6,1,Pin_1*%
%TO.N,unconnected-(J6-Pad1)*%
X143000000Y-112000000D03*
%TD*%
D13*
%TO.P,C6,1*%
%TO.N,Net-(C6-Pad1)*%
X126492000Y-127040000D03*
%TO.P,C6,2*%
%TO.N,Net-(C5-Pad2)*%
X126492000Y-132040000D03*
%TD*%
D28*
%TO.N,Net-(J1-Pad1)*%
X95250000Y-150495000D02*
X91440000Y-146685000D01*
X95250000Y-155702000D02*
X95250000Y-150495000D01*
X93726000Y-157226000D02*
X95250000Y-155702000D01*
%TO.N,Net-(C11-Pad2)*%
X139700000Y-138430000D02*
X137287000Y-138430000D01*
X141224000Y-139954000D02*
X139700000Y-138430000D01*
X141224000Y-149860000D02*
X141224000Y-139954000D01*
X140248000Y-150836000D02*
X141224000Y-149860000D01*
X138176000Y-150836000D02*
X140248000Y-150836000D01*
%TO.N,Net-(C10-Pad1)*%
X135636000Y-148336000D02*
X138176000Y-148336000D01*
X133560000Y-139090000D02*
X133560000Y-146260000D01*
X133560000Y-146260000D02*
X135636000Y-148336000D01*
%TO.N,Net-(C11-Pad2)*%
X135382000Y-153630000D02*
X138176000Y-150836000D01*
X135382000Y-154178000D02*
X135382000Y-153630000D01*
X135014000Y-153810000D02*
X135382000Y-154178000D01*
X132040000Y-153810000D02*
X135014000Y-153810000D01*
%TO.N,Net-(R1-Pad2)*%
X104140000Y-141605000D02*
X102235000Y-141605000D01*
X112405000Y-144770000D02*
X112405000Y-143520000D01*
X102235000Y-141605000D02*
X99720400Y-144119600D01*
X99720400Y-144119600D02*
X99695000Y-144119600D01*
X103505000Y-142240000D02*
X104140000Y-141605000D01*
X110490000Y-141605000D02*
X104140000Y-141605000D01*
X103505000Y-144780000D02*
X103505000Y-142240000D01*
X112405000Y-143520000D02*
X110490000Y-141605000D01*
%TO.N,Net-(J1-Pad1)*%
X87910000Y-140055000D02*
X87160000Y-140055000D01*
X91440000Y-146685000D02*
X91440000Y-142875000D01*
X91440000Y-142875000D02*
X88620000Y-140055000D01*
X88620000Y-140055000D02*
X87160000Y-140055000D01*
X97195000Y-144119600D02*
X94005400Y-144119600D01*
X94005400Y-144119600D02*
X91440000Y-146685000D01*
%TO.N,Net-(C2-Pad1)*%
X95250000Y-119380000D02*
X95250000Y-117094000D01*
X104775000Y-134600000D02*
X107325000Y-137150000D01*
X103493688Y-114997112D02*
X106222800Y-112268000D01*
X101092000Y-114997112D02*
X103493688Y-114997112D01*
X95250000Y-117094000D02*
X97346888Y-114997112D01*
X97637600Y-137718800D02*
X95250000Y-135331200D01*
X103276400Y-139446000D02*
X106273600Y-139446000D01*
X97346888Y-114997112D02*
X101092000Y-114997112D01*
X101549200Y-137718800D02*
X97637600Y-137718800D01*
X106273600Y-139446000D02*
X107325000Y-138394600D01*
X95250000Y-135331200D02*
X95250000Y-119380000D01*
X104775000Y-133945000D02*
X104775000Y-134600000D01*
X107325000Y-138394600D02*
X107325000Y-137150000D01*
X103276400Y-139446000D02*
X101549200Y-137718800D01*
%TO.N,+6V*%
X103373000Y-137160000D02*
X100223400Y-134010400D01*
X113030000Y-127635000D02*
X113030000Y-130175000D01*
X105246800Y-120864000D02*
X106222800Y-119888000D01*
X122428000Y-137200000D02*
X118785000Y-137200000D01*
X106222800Y-119888000D02*
X106222800Y-124637800D01*
X114955000Y-137160000D02*
X114945000Y-137150000D01*
X118745000Y-137160000D02*
X114955000Y-137160000D01*
X119380000Y-131445000D02*
X120650000Y-132715000D01*
X103505000Y-137160000D02*
X103373000Y-137160000D01*
X114300000Y-131445000D02*
X119380000Y-131445000D01*
X102235000Y-133350000D02*
X102235000Y-127635000D01*
X101092000Y-120864000D02*
X105246800Y-120864000D01*
X103505000Y-126365000D02*
X107950000Y-126365000D01*
X102235000Y-127635000D02*
X103505000Y-126365000D01*
X101574600Y-134010400D02*
X102235000Y-133350000D01*
X100223400Y-134010400D02*
X101574600Y-134010400D01*
X111760000Y-126365000D02*
X113030000Y-127635000D01*
X113030000Y-130175000D02*
X114300000Y-131445000D01*
X120650000Y-132715000D02*
X120650000Y-135422000D01*
X107950000Y-126365000D02*
X111760000Y-126365000D01*
X106222800Y-124637800D02*
X107950000Y-126365000D01*
X120650000Y-135422000D02*
X122428000Y-137200000D01*
X118785000Y-137200000D02*
X118745000Y-137160000D01*
%TO.N,Net-(C5-Pad1)*%
X137160000Y-126746000D02*
X137160000Y-129159000D01*
X138588500Y-118776500D02*
X137588000Y-118776500D01*
X134573000Y-131746000D02*
X133350000Y-131746000D01*
X140208000Y-125730000D02*
X140208000Y-120396000D01*
X137160000Y-126746000D02*
X139192000Y-126746000D01*
X139192000Y-126746000D02*
X140208000Y-125730000D01*
X140208000Y-120396000D02*
X138588500Y-118776500D01*
X137160000Y-129159000D02*
X134573000Y-131746000D01*
%TO.N,Net-(C5-Pad2)*%
X133350000Y-126746000D02*
X134366000Y-126746000D01*
X126492000Y-132040000D02*
X128056000Y-132040000D01*
X134366000Y-126746000D02*
X135128000Y-125984000D01*
X135128000Y-125984000D02*
X135128000Y-121316500D01*
X133350000Y-126746000D02*
X130000000Y-126746000D01*
X130000000Y-130000000D02*
X130000000Y-126746000D01*
X135128000Y-121316500D02*
X132588000Y-118776500D01*
X130048000Y-130048000D02*
X130000000Y-130000000D01*
X128056000Y-132040000D02*
X130048000Y-130048000D01*
%TO.N,Net-(C6-Pad1)*%
X125476000Y-120888500D02*
X127588000Y-118776500D01*
X124460000Y-133350000D02*
X124460000Y-129072000D01*
X129050000Y-136650000D02*
X127020000Y-134620000D01*
X127020000Y-134620000D02*
X125730000Y-134620000D01*
X126492000Y-127040000D02*
X125476000Y-126024000D01*
X124460000Y-129072000D02*
X126492000Y-127040000D01*
X125730000Y-134620000D02*
X124460000Y-133350000D01*
X125476000Y-126024000D02*
X125476000Y-120888500D01*
%TO.N,Net-(C8-Pad1)*%
X115824000Y-129032000D02*
X119634000Y-129032000D01*
X119634000Y-129032000D02*
X120396000Y-128270000D01*
X122330000Y-125080000D02*
X122330000Y-121280000D01*
X122330000Y-121280000D02*
X120316000Y-118776500D01*
X120396000Y-127000000D02*
X122330000Y-125080000D01*
X120396000Y-128270000D02*
X120396000Y-127000000D01*
%TO.N,Net-(C10-Pad1)*%
X133560000Y-138760000D02*
X133560000Y-135520000D01*
X109708000Y-133985000D02*
X107950000Y-133985000D01*
X132230000Y-140420000D02*
X133560000Y-139090000D01*
X109865000Y-138405000D02*
X111880000Y-140420000D01*
X134714000Y-134366000D02*
X137160000Y-134366000D01*
X109865000Y-134142000D02*
X109708000Y-133985000D01*
X111880000Y-140420000D02*
X132230000Y-140420000D01*
X110911000Y-129119000D02*
X110824000Y-129032000D01*
X133560000Y-135520000D02*
X134714000Y-134366000D01*
X110911000Y-133096000D02*
X110911000Y-129119000D01*
X109865000Y-137150000D02*
X109865000Y-138405000D01*
X109865000Y-137150000D02*
X109865000Y-134142000D01*
X133560000Y-139090000D02*
X133560000Y-138760000D01*
X109865000Y-134142000D02*
X110911000Y-133096000D01*
%TO.N,Net-(C9-Pad1)*%
X111252000Y-153924000D02*
X112014000Y-153162000D01*
X106045000Y-151352500D02*
X103505000Y-153892500D01*
X124206000Y-143891000D02*
X124206000Y-143724000D01*
X125730000Y-142200000D02*
X126980000Y-142200000D01*
X103505000Y-155321000D02*
X105156000Y-156972000D01*
X103505000Y-153892500D02*
X103505000Y-155321000D01*
X122174000Y-143891000D02*
X124206000Y-143891000D01*
X105156000Y-156972000D02*
X110236000Y-156972000D01*
X106045000Y-146050000D02*
X106045000Y-151352500D01*
X110236000Y-156972000D02*
X111252000Y-155956000D01*
X120523000Y-149987000D02*
X120523000Y-145542000D01*
X126980000Y-142200000D02*
X129050000Y-144270000D01*
X124206000Y-143724000D02*
X125730000Y-142200000D01*
X103505000Y-153892500D02*
X98505000Y-153892500D01*
X111252000Y-155956000D02*
X111252000Y-153924000D01*
X120523000Y-145542000D02*
X122174000Y-143891000D01*
X112014000Y-153162000D02*
X117348000Y-153162000D01*
X117348000Y-153162000D02*
X120523000Y-149987000D01*
X107325000Y-144770000D02*
X106045000Y-146050000D01*
%TO.N,Net-(C9-Pad2)*%
X123825000Y-135295000D02*
X123825000Y-135255000D01*
X110236000Y-117094000D02*
X110236000Y-118696500D01*
X122936000Y-128016000D02*
X123950000Y-126900000D01*
X110236000Y-118696500D02*
X110316000Y-118776500D01*
X125730000Y-137200000D02*
X123825000Y-135295000D01*
X122936000Y-134620000D02*
X122936000Y-128016000D01*
X121920000Y-115824000D02*
X111506000Y-115824000D01*
X111506000Y-115824000D02*
X110236000Y-117094000D01*
X123950000Y-126900000D02*
X123920000Y-117690000D01*
X123190000Y-134620000D02*
X122936000Y-134620000D01*
X123920000Y-117690000D02*
X121920000Y-115824000D01*
X123825000Y-135255000D02*
X123190000Y-134620000D01*
%TO.N,Net-(C10-Pad2)*%
X112405000Y-135626000D02*
X114935000Y-133096000D01*
X113157000Y-138938000D02*
X130175000Y-138938000D01*
X117094000Y-133096000D02*
X118618000Y-134620000D01*
X112405000Y-137150000D02*
X112405000Y-135626000D01*
X112405000Y-137150000D02*
X112405000Y-138186000D01*
X131191000Y-135255000D02*
X130302000Y-134366000D01*
X115911000Y-133096000D02*
X117094000Y-133096000D01*
X131191000Y-137922000D02*
X131191000Y-135255000D01*
X114935000Y-133096000D02*
X115911000Y-133096000D01*
X112405000Y-138186000D02*
X113157000Y-138938000D01*
X130175000Y-138938000D02*
X131191000Y-137922000D01*
%TO.N,+12V*%
X91440000Y-115570000D02*
X95250000Y-111760000D01*
X91440000Y-120650000D02*
X91440000Y-115570000D01*
%TO.N,Net-(D2-Pad1)*%
X100228400Y-130200400D02*
X97683400Y-132745400D01*
X100228400Y-129438400D02*
X100228400Y-130200400D01*
X97683400Y-132745400D02*
X97683400Y-134010400D01*
%TO.N,Net-(D3-Pad1)*%
X100228400Y-125476000D02*
X97688400Y-128016000D01*
X100228400Y-124917200D02*
X100228400Y-125476000D01*
X97688400Y-128016000D02*
X97688400Y-129438400D01*
%TO.N,Net-(R2-Pad2)*%
X116697500Y-151272500D02*
X118745000Y-149225000D01*
X111125000Y-151272500D02*
X108505000Y-153892500D01*
X111125000Y-147320000D02*
X111125000Y-151272500D01*
X109865000Y-146060000D02*
X111125000Y-147320000D01*
X109865000Y-144770000D02*
X109865000Y-146060000D01*
X118745000Y-149225000D02*
X118745000Y-144780000D01*
X111125000Y-151272500D02*
X116697500Y-151272500D01*
%TO.N,Net-(R7-Pad2)*%
X115316000Y-118776500D02*
X117856000Y-121316500D01*
X117856000Y-126238000D02*
X118618000Y-127000000D01*
X117856000Y-121316500D02*
X117856000Y-126238000D01*
%TD*%
M02*
